<?xml version="1.0" encoding="UTF-8"?>
<svg xmlns="http://www.w3.org/2000/svg" style="stroke-dasharray:none; shape-rendering:auto; font-family:'Arial'; text-rendering:auto; fill-opacity:1; color-interpolation:auto; color-rendering:auto; font-size:12; fill:black; stroke:black; image-rendering:auto; stroke-miterlimit:10; stroke-linecap:square; stroke-linejoin:miter; font-style:normal; stroke-width:1; stroke-dashoffset:0; font-weight:normal; stroke-opacity:1;" contentScriptType="text/ecmascript" preserveAspectRatio="xMidYMid meet" zoomAndPan="magnify" version="1.0" contentStyleType="text/css" xml:xlink="http://www.w3.org/1999/xlink" width="2151" height="1051"><rect x="50" y="850" width="2101" height="201" ry="0" rx="0" style="stroke:#000000; fill:#C9C3AC" /><g componentSequence="49"><text x="-950" y="56" transform="rotate(270)" text-anchor="middle" style="font-weight:bold;font-size:10px;stroke:none; fill:#434343"><tspan dy="14" x="-950">ANALISTA</tspan></text></g><rect x="50" y="650" width="2101" height="201" ry="0" rx="0" style="stroke:#000000; fill:#D6E0D0" /><g componentSequence="37"><text x="-750" y="56" transform="rotate(270)" text-anchor="middle" style="font-weight:bold;font-size:10px;stroke:none; fill:#434343"><tspan dy="14" x="-750">GESTOR</tspan></text></g><rect x="50" y="450" width="2101" height="201" ry="0" rx="0" style="stroke:#000000; fill:#D0DAAE" /><g componentSequence="24"><text x="-550" y="56" transform="rotate(270)" text-anchor="middle" style="font-weight:bold;font-size:10px;stroke:none; fill:#434343"><tspan dy="14" x="-550">PMO</tspan></text></g><rect x="50" y="250" width="2101" height="201" ry="0" rx="0" style="stroke:#000000; fill:#ADC9AC" /><g componentSequence="12"><text x="-350" y="56" transform="rotate(270)" text-anchor="middle" style="font-weight:bold;font-size:10px;stroke:none; fill:#434343"><tspan dy="14" x="-350">LÍDER</tspan></text></g><rect x="50" y="50" width="2101" height="201" ry="0" rx="0" style="stroke:#000000; fill:#82B0B7" /><g componentSequence="1"><text x="-150" y="56" transform="rotate(270)" text-anchor="middle" style="font-weight:bold;font-size:10px;stroke:none; fill:#434343"><tspan dy="14" x="-150">SOLICITANTE</tspan></text></g><g sequence="2"><ellipse cx="127" cy="175" rx="17" ry="17" stroke-width="1" style="fill:url(#linearGradient66FF6696FF96B6FFB6_1111993231);" stroke="336633" /></g><g sequence="3"><rect x="290" y="130" width="106" height="80" ry="5" rx="5" style="fill:url(#linearGradientF8FBFEEDF5FCDEEDFAD4E7F8E2E5E9_1867537223);" stroke="191970" /></g><g componentSequence="3"><text x="343" y="145" text-anchor="middle" style="font-weight:bold;font-size:10px;stroke:none; fill:#333399"><tspan dy="14" x="343">Corrigir</tspan><tspan dy="14" x="343">informações da</tspan><tspan dy="14" x="343">solicitação</tspan></text></g><g sequence="4"><polygon points=" 440 144 470 114 500 144 470 174 440 144" style="fill:url(#linearGradientFAFBFCFFFFCC_206443224);" stroke="000000" /></g><g componentSequence="4"><text x="470" y="184" text-anchor="middle" style="font-weight:bold;font-size:10px;stroke:none; fill:#333399"><tspan dy="14" x="470">Enviar</tspan><tspan dy="14" x="470">para</tspan><tspan dy="14" x="470">origem</tspan></text></g><g sequence="5"><rect x="1393" y="140" width="106" height="54" ry="5" rx="5" style="fill:url(#linearGradientF8FBFEEDF5FCDEEDFAD4E7F8E2E5E9_1505175863);" stroke="191970" /></g><g componentSequence="5"><text x="1446" y="156" text-anchor="middle" style="font-weight:bold;font-size:10px;stroke:none; fill:#333399"><tspan dy="14" x="1446">Avaliar solução</tspan></text></g><g sequence="6"><polygon points=" 1602 147 1632 117 1662 147 1632 177 1602 147" style="fill:url(#linearGradientFAFBFCFFFFCC_133367781);" stroke="000000" /></g><g componentSequence="6"><text x="1632" y="179" text-anchor="middle" style="font-weight:bold;font-size:10px;stroke:none; fill:#333399"><tspan dy="14" x="1632">Aprovar?</tspan></text></g><g sequence="7"><ellipse cx="2057" cy="168" rx="17" ry="17" stroke-width="3" style="fill:url(#linearGradientFF6666FF9696FFB6B6_1686851446);" stroke="993333" /></g><rect x="1237" y="134" width="105" height="69" ry="5" rx="5" style="stroke:none; fill:#FFFFE0" /><g componentSequence="10"><text x="1247" y="157" text-anchor="left" style="font-weight:bold;font-size:10px;stroke:none; fill:#000000"><tspan dy="14" x="1247">Deadline para</tspan><tspan dy="14" x="1247">aprovação de 1</tspan><tspan dy="14" x="1247">semana</tspan></text></g><path style="fill:none; stroke-width:1; stroke:#000000;" d="M1257.0 134.0 L1237.0 134.0 L1237.0 203.0 L1257.0 203.0" /><g sequence="13"><rect x="150" y="317" width="106" height="67" ry="5" rx="5" style="fill:url(#linearGradientF8FBFEEDF5FCDEEDFAD4E7F8E2E5E9_1980628875);" stroke="191970" /></g><g componentSequence="13"><text x="203" y="339" text-anchor="middle" style="font-weight:bold;font-size:10px;stroke:none; fill:#333399"><tspan dy="14" x="203">Avaliar demanda</tspan></text></g><g sequence="14"><polygon points=" 312 324 342 294 372 324 342 354 312 324" style="fill:url(#linearGradientFAFBFCFFFFCC_285489978);" stroke="000000" /></g><g componentSequence="14"><text x="342" y="364" text-anchor="middle" style="font-weight:bold;font-size:10px;stroke:none; fill:#333399"><tspan dy="14" x="342">Possui</tspan><tspan dy="14" x="342">inconsist</tspan><tspan dy="14" x="342">ência?</tspan></text></g><g sequence="15"><polygon points=" 440 331 470 301 500 331 470 361 440 331" style="fill:url(#linearGradientFAFBFCFFFFCC_751592848);" stroke="000000" /></g><g componentSequence="15"><text x="470" y="371" text-anchor="middle" style="font-weight:bold;font-size:10px;stroke:none; fill:#333399"><tspan dy="14" x="470">Tipo de</tspan><tspan dy="14" x="470">ação</tspan></text></g><g sequence="16"><ellipse cx="602" cy="351" rx="17" ry="17" stroke-width="3" style="fill:url(#linearGradientFF6666FF9696FFB6B6_522184682);" stroke="993333" /></g><g sequence="25"><rect x="550" y="518" width="106" height="80" ry="5" rx="5" style="fill:url(#linearGradientF8FBFEEDF5FCDEEDFAD4E7F8E2E5E9_1739768732);" stroke="191970" /></g><g componentSequence="25"><text x="603" y="533" text-anchor="middle" style="font-weight:bold;font-size:10px;stroke:none; fill:#333399"><tspan dy="14" x="603">Associar</tspan><tspan dy="14" x="603">demanda ao</tspan><tspan dy="14" x="603">CFP/CC</tspan></text></g><g sequence="26"><polygon points=" 725 532 755 502 785 532 755 562 725 532" style="fill:url(#linearGradientFAFBFCFFFFCC_155741172);" stroke="000000" /></g><g componentSequence="26"><text x="755" y="572" text-anchor="middle" style="font-weight:bold;font-size:10px;stroke:none; fill:#333399"><tspan dy="14" x="755">Possui</tspan><tspan dy="14" x="755">inconsist</tspan><tspan dy="14" x="755">ência?</tspan></text></g><g sequence="27"><polygon points=" 850 532 880 502 910 532 880 562 850 532" style="fill:url(#linearGradientFAFBFCFFFFCC_1906795758);" stroke="000000" /></g><g componentSequence="27"><text x="880" y="572" text-anchor="middle" style="font-weight:bold;font-size:10px;stroke:none; fill:#333399"><tspan dy="14" x="880">Projeto</tspan><tspan dy="14" x="880">de</tspan><tspan dy="14" x="880">invest...</tspan></text></g><g sequence="28"><rect x="980" y="525" width="106" height="67" ry="5" rx="5" style="fill:url(#linearGradientF8FBFEEDF5FCDEEDFAD4E7F8E2E5E9_617840525);" stroke="191970" /></g><g componentSequence="28"><text x="1033" y="540" text-anchor="middle" style="font-weight:bold;font-size:10px;stroke:none; fill:#333399"><tspan dy="14" x="1033">Aguardar</tspan><tspan dy="14" x="1033">aprovação</tspan></text></g><g sequence="34"><rect x="827" y="303" width="106" height="93" ry="5" rx="5" style="fill:url(#linearGradientF8FBFEEDF5FCDEEDFAD4E7F8E2E5E9_962270430);" stroke="191970" /></g><g componentSequence="34"><text x="880" y="318" text-anchor="middle" style="font-weight:bold;font-size:10px;stroke:none; fill:#333399"><tspan dy="14" x="880">Distribuir</tspan><tspan dy="14" x="880">demandas /</tspan><tspan dy="14" x="880">Abrir tarefas no</tspan><tspan dy="14" x="880">Jira</tspan></text></g><g sequence="38"><rect x="290" y="718" width="106" height="67" ry="5" rx="5" style="fill:url(#linearGradientF8FBFEEDF5FCDEEDFAD4E7F8E2E5E9_179771453);" stroke="191970" /></g><g componentSequence="38"><text x="343" y="733" text-anchor="middle" style="font-weight:bold;font-size:10px;stroke:none; fill:#333399"><tspan dy="14" x="343">Esclarecer</tspan><tspan dy="14" x="343">dúvida</tspan></text></g><g sequence="39"><rect x="417" y="718" width="106" height="67" ry="5" rx="5" style="fill:url(#linearGradientF8FBFEEDF5FCDEEDFAD4E7F8E2E5E9_2056802889);" stroke="191970" /></g><g componentSequence="39"><text x="470" y="733" text-anchor="middle" style="font-weight:bold;font-size:10px;stroke:none; fill:#333399"><tspan dy="14" x="470">Aprovar</tspan><tspan dy="14" x="470">demanda</tspan></text></g><g sequence="40"><polygon points=" 572 732 602 702 632 732 602 762 572 732" style="fill:url(#linearGradientFAFBFCFFFFCC_641889664);" stroke="000000" /></g><g componentSequence="40"><text x="602" y="764" text-anchor="middle" style="font-weight:bold;font-size:10px;stroke:none; fill:#333399"><tspan dy="14" x="602">Aprovar?</tspan></text></g><g sequence="47"><ellipse cx="755" cy="752" rx="17" ry="17" stroke-width="3" style="fill:url(#linearGradientFF6666FF9696FFB6B6_1429223967);" stroke="993333" /></g><g sequence="50"><rect x="1090" y="882" width="106" height="67" ry="5" rx="5" style="fill:url(#linearGradientF8FBFEEDF5FCDEEDFAD4E7F8E2E5E9_1362621674);" stroke="191970" /></g><g componentSequence="50"><text x="1143" y="897" text-anchor="middle" style="font-weight:bold;font-size:10px;stroke:none; fill:#333399"><tspan dy="14" x="1143">Executar</tspan><tspan dy="14" x="1143">demanda</tspan></text></g><g sequence="52"><rect x="1240" y="882" width="106" height="67" ry="5" rx="5" style="fill:url(#linearGradientF8FBFEEDF5FCDEEDFAD4E7F8E2E5E9_816863310);" stroke="191970" /></g><g componentSequence="52"><text x="1293" y="897" text-anchor="middle" style="font-weight:bold;font-size:10px;stroke:none; fill:#333399"><tspan dy="14" x="1293">Apontar horas</tspan><tspan dy="14" x="1293">no Jira/PMS</tspan></text></g><g sequence="54"><rect x="1236" y="325" width="106" height="54" ry="5" rx="5" style="fill:url(#linearGradientF8FBFEEDF5FCDEEDFAD4E7F8E2E5E9_158695899);" stroke="191970" /></g><g componentSequence="54"><text x="1289" y="341" text-anchor="middle" style="font-weight:bold;font-size:10px;stroke:none; fill:#333399"><tspan dy="14" x="1289">Validar solução</tspan></text></g><g sequence="56"><polygon points=" 1416 339 1446 309 1476 339 1446 369 1416 339" style="fill:url(#linearGradientFAFBFCFFFFCC_27284919);" stroke="000000" /></g><g componentSequence="56"><text x="1446" y="371" text-anchor="middle" style="font-weight:bold;font-size:10px;stroke:none; fill:#333399"><tspan dy="14" x="1446">Válido?</tspan></text></g><g sequence="60"><rect x="1580" y="318" width="106" height="67" ry="5" rx="5" style="fill:url(#linearGradientF8FBFEEDF5FCDEEDFAD4E7F8E2E5E9_1163616822);" stroke="191970" /></g><g componentSequence="60"><text x="1633" y="333" text-anchor="middle" style="font-weight:bold;font-size:10px;stroke:none; fill:#333399"><tspan dy="14" x="1633">Avaliar</tspan><tspan dy="14" x="1633">reprovação</tspan></text></g><g sequence="62"><polygon points=" 1767 332 1797 302 1827 332 1797 362 1767 332" style="fill:url(#linearGradientFAFBFCFFFFCC_1921837772);" stroke="000000" /></g><g componentSequence="62"><text x="1797" y="364" text-anchor="middle" style="font-weight:bold;font-size:10px;stroke:none; fill:#333399"><tspan dy="14" x="1797">Aprovar?</tspan></text></g><g sequence="68"><rect x="1930" y="318" width="106" height="67" ry="5" rx="5" style="fill:url(#linearGradientF8FBFEEDF5FCDEEDFAD4E7F8E2E5E9_25899477);" stroke="191970" /></g><g componentSequence="68"><text x="1983" y="333" text-anchor="middle" style="font-weight:bold;font-size:10px;stroke:none; fill:#333399"><tspan dy="14" x="1983">Qualificar</tspan><tspan dy="14" x="1983">demanda</tspan></text></g><g componentSequence="9"><text x="1560" y="163" style="font-size:10px;font-weight:none;stroke:none; fill:#333399" text-anchor="left" /></g><g componentSequence="11"><text x="1377" y="168" style="font-size:10px;font-weight:none;stroke:none; fill:#333399" text-anchor="left" /></g><g componentSequence="17"><text x="137" y="284" style="font-size:10px;font-weight:none;stroke:none; fill:#333399" text-anchor="left" /></g><g componentSequence="18"><text x="294" y="350" style="font-size:10px;font-weight:none;stroke:none; fill:#333399" text-anchor="left" /></g><g componentSequence="19"><text x="386" y="327" style="font-size:10px;font-weight:none;stroke:none; fill:#333399" text-anchor="left"><tspan dy="14" x="386">Não</tspan></text></g><g componentSequence="20"><text x="512" y="329" style="font-size:10px;font-weight:none;stroke:none; fill:#333399" text-anchor="left"><tspan dy="14" x="512">Reprovado</tspan></text></g><g componentSequence="21"><text x="350" y="268" style="font-size:10px;font-weight:none;stroke:none; fill:#333399" text-anchor="left"><tspan dy="14" x="350">Sim</tspan></text></g><g componentSequence="22"><text x="428" y="170" style="font-size:10px;font-weight:none;stroke:none; fill:#333399" text-anchor="left" /></g><g componentSequence="23"><text x="480" y="100" style="font-size:10px;font-weight:none;stroke:none; fill:#333399" text-anchor="left"><tspan dy="14" x="480">Avaliar Demanda</tspan></text></g><g componentSequence="29"><text x="700" y="558" style="font-size:10px;font-weight:none;stroke:none; fill:#333399" text-anchor="left" /></g><g componentSequence="30"><text x="797" y="537" style="font-size:10px;font-weight:none;stroke:none; fill:#333399" text-anchor="left"><tspan dy="14" x="797">Não</tspan></text></g><g componentSequence="31"><text x="920" y="536" style="font-size:10px;font-weight:none;stroke:none; fill:#333399" text-anchor="left"><tspan dy="14" x="920">Sim</tspan></text></g><g componentSequence="32"><text x="570" y="430" style="font-size:10px;font-weight:none;stroke:none; fill:#333399" text-anchor="left"><tspan dy="14" x="570">Aprovado</tspan></text></g><g componentSequence="33"><text x="768" y="490" style="font-size:10px;font-weight:none;stroke:none; fill:#333399" text-anchor="left"><tspan dy="14" x="768">Sim</tspan></text></g><g componentSequence="35"><text x="891" y="484" style="font-size:10px;font-weight:none;stroke:none; fill:#333399" text-anchor="left"><tspan dy="14" x="891">Não</tspan></text></g><g componentSequence="36"><text x="1042" y="388" style="font-size:10px;font-weight:none;stroke:none; fill:#333399" text-anchor="left" /></g><g componentSequence="42"><text x="300" y="430" style="font-size:10px;font-weight:none;stroke:none; fill:#333399" text-anchor="left"><tspan dy="14" x="300">Consultar gestor</tspan></text></g><g componentSequence="44"><text x="430" y="429" style="font-size:10px;font-weight:none;stroke:none; fill:#333399" text-anchor="left"><tspan dy="14" x="430">Solicitar aprovação</tspan></text></g><g componentSequence="45"><text x="557" y="748" style="font-size:10px;font-weight:none;stroke:none; fill:#333399" text-anchor="left" /></g><g componentSequence="46"><text x="610" y="678" style="font-size:10px;font-weight:none;stroke:none; fill:#333399" text-anchor="left"><tspan dy="14" x="610">Aprovado</tspan></text></g><g componentSequence="48"><text x="640" y="727" style="font-size:10px;font-weight:none;stroke:none; fill:#333399" text-anchor="left"><tspan dy="14" x="640">Reprovado</tspan></text></g><g componentSequence="51"><text x="1151" y="487" style="font-size:10px;font-weight:none;stroke:none; fill:#333399" text-anchor="left" /></g><g componentSequence="53"><text x="1228" y="915" style="font-size:10px;font-weight:none;stroke:none; fill:#333399" text-anchor="left" /></g><g componentSequence="55"><text x="1301" y="630" style="font-size:10px;font-weight:none;stroke:none; fill:#333399" text-anchor="left" /></g><g componentSequence="57"><text x="1389" y="352" style="font-size:10px;font-weight:none;stroke:none; fill:#333399" text-anchor="left" /></g><g componentSequence="58"><text x="1460" y="293" style="font-size:10px;font-weight:none;stroke:none; fill:#333399" text-anchor="left"><tspan dy="14" x="1460">Sim</tspan></text></g><g componentSequence="59"><text x="1460" y="391" style="font-size:10px;font-weight:none;stroke:none; fill:#333399" text-anchor="left"><tspan dy="14" x="1460">Não</tspan></text></g><g componentSequence="61"><text x="1640" y="212" style="font-size:10px;font-weight:none;stroke:none; fill:#333399" text-anchor="left"><tspan dy="14" x="1640">Reprovado</tspan></text></g><g componentSequence="63"><text x="1736" y="348" style="font-size:10px;font-weight:none;stroke:none; fill:#333399" text-anchor="left" /></g><g componentSequence="65"><text x="1818" y="385" style="font-size:10px;font-weight:none;stroke:none; fill:#333399" text-anchor="left"><tspan dy="14" x="1818">Sim</tspan></text></g><g componentSequence="66"><text x="1782" y="90" style="font-size:10px;font-weight:none;stroke:none; fill:#333399" text-anchor="left"><tspan dy="14" x="1782">Prazo expirado</tspan></text></g><g componentSequence="67"><text x="510" y="155" style="font-size:10px;font-weight:none;stroke:none; fill:#333399" text-anchor="left"><tspan dy="14" x="510">Associar Demanda</tspan></text></g><g componentSequence="69"><text x="1666" y="144" style="font-size:10px;font-weight:none;stroke:none; fill:#333399" text-anchor="left"><tspan dy="14" x="1666">Aprovado</tspan></text></g><g componentSequence="70"><text x="1830" y="326" style="font-size:10px;font-weight:none;stroke:none; fill:#333399" text-anchor="left"><tspan dy="14" x="1830">Não</tspan></text></g><g componentSequence="71"><text x="2067" y="280" style="font-size:10px;font-weight:none;stroke:none; fill:#333399" text-anchor="left" /></g><g componentSequence="72"><text x="212" y="612" style="font-size:10px;font-weight:none;stroke:none; fill:#333399" text-anchor="left" /></g><path style="fill:none; stroke:#000000;stroke-width:1" d="M127.0 193.0 L127.0 353.0 L149.0 352.0" /><polygon style="fill:#000000; stroke:#000000;" points=" 139 347 149 352 139 357 141 352" /><path style="fill:none; stroke:#000000;stroke-width:1" d="M396.0 170.0 L439.0 170.0" /><polygon style="fill:#000000; stroke:#000000;" points=" 429 165 439 170 429 175 431 170" /><path style="fill:none; stroke:#000000;stroke-width:1" d="M342.0 293.0 L342.0 210.0" /><polygon style="fill:#000000; stroke:#000000;" points=" 337 220 342 210 347 220 342 218" /><path style="fill:none; stroke:#000000;stroke-width:1" d="M755.0 501.0 L755.0 268.0 L410.0 268.0 L370.0 210.0" /><polygon style="fill:#000000; stroke:#000000;" points=" 372 221 370 210 380 215 375 217" /><path style="fill:none; stroke:#000000;stroke-width:1" d="M469.0 113.0 L469.0 82.0 L202.0 82.0 L202.0 316.0" /><polygon style="fill:#000000; stroke:#000000;" points=" 207 306 202 316 197 306 202 308" /><path style="fill:none; stroke:#000000;stroke-width:1" d="M500.0 170.0 L890.0 172.0 L890.0 74.0 L2114.0 74.0 L2114.0 1026.0 L900.0 1026.0 L900.0 686.0 L716.0 686.0 L638.0 598.0" /><polygon style="fill:#000000; stroke:#000000;" points=" 641 609 638 598 648 602 643 604" /><path style="fill:none; stroke:#000000;stroke-width:1" d="M1499.0 165.0 L1601.0 161.0" /><polygon style="fill:#000000; stroke:#000000;" points=" 1591 156 1601 161 1591 166 1593 161" /><path style="fill:none; stroke:#009600;stroke-width:1" d="M1445.0 139.0 L1445.0 110.0 L1797.0 110.0 L2010.0 110.0 L2010.0 291.0 L1998.0 317.0" /><polygon style="fill:#009600; stroke:#009600;" points=" 2007 310 1998 317 1998 306 2001 310" /><path style="fill:none; stroke:#000000;stroke-dasharray:2" d="M1342.0 168.0 L1392.0 167.0" /><path style="fill:none; stroke:#000000;stroke-width:1" d="M1446.0 308.0 L1446.0 194.0" /><polygon style="fill:#000000; stroke:#000000;" points=" 1441 204 1446 194 1451 204 1446 202" /><path style="fill:none; stroke:#000000;stroke-width:1" d="M1632.0 203.0 L1632.0 317.0" /><polygon style="fill:#000000; stroke:#000000;" points=" 1637 307 1632 317 1627 307 1632 309" /><path style="fill:none; stroke:#000000;stroke-width:1" d="M1662.0 160.0 L1982.0 168.0 L1982.0 317.0" /><polygon style="fill:#000000; stroke:#000000;" points=" 1987 307 1982 317 1977 307 1982 309" /><path style="fill:none; stroke:#000000;stroke-width:1" d="M2036.0 352.0 L2057.0 352.0 L2057.0 186.0" /><polygon style="fill:#000000; stroke:#000000;" points=" 2052 196 2057 186 2062 196 2057 194" /><path style="fill:none; stroke:#000000;stroke-width:1" d="M256.0 350.0 L311.0 350.0" /><polygon style="fill:#000000; stroke:#000000;" points=" 301 345 311 350 301 355 303 350" /><path style="fill:none; stroke:#000000;stroke-width:1" d="M289.0 751.0 L202.0 752.0 L202.0 384.0" /><polygon style="fill:#000000; stroke:#000000;" points=" 197 394 202 384 207 394 202 392" /><path style="fill:none; stroke:#000000;stroke-width:1" d="M372.0 350.0 L439.0 350.0" /><polygon style="fill:#000000; stroke:#000000;" points=" 429 345 439 350 429 355 431 350" /><path style="fill:none; stroke:#000000;stroke-width:1" d="M500.0 350.0 L585.0 351.0" /><polygon style="fill:#000000; stroke:#000000;" points=" 575 346 585 351 575 356 577 351" /><path style="fill:none; stroke:#000000;stroke-width:1" d="M500.0 371.0 L602.0 441.0 L602.0 517.0" /><polygon style="fill:#000000; stroke:#000000;" points=" 607 507 602 517 597 507 602 509" /><path style="fill:none; stroke:#000000;stroke-width:1" d="M439.0 371.0 L342.0 438.0 L342.0 717.0" /><polygon style="fill:#000000; stroke:#000000;" points=" 347 707 342 717 337 707 342 709" /><path style="fill:none; stroke:#000000;stroke-width:1" d="M470.0 400.0 L470.0 717.0" /><polygon style="fill:#000000; stroke:#000000;" points=" 475 707 470 717 465 707 470 709" /><path style="fill:none; stroke:#000000;stroke-width:1" d="M656.0 558.0 L724.0 558.0" /><polygon style="fill:#000000; stroke:#000000;" points=" 714 553 724 558 714 563 716 558" /><path style="fill:none; stroke:#000000;stroke-width:1" d="M602.0 701.0 L602.0 598.0" /><polygon style="fill:#000000; stroke:#000000;" points=" 597 608 602 598 607 608 602 606" /><path style="fill:none; stroke:#000000;stroke-width:1" d="M785.0 558.0 L849.0 558.0" /><polygon style="fill:#000000; stroke:#000000;" points=" 839 553 849 558 839 563 841 558" /><path style="fill:none; stroke:#000000;stroke-width:1" d="M910.0 558.0 L979.0 558.0" /><polygon style="fill:#000000; stroke:#000000;" points=" 969 553 979 558 969 563 971 558" /><path style="fill:none; stroke:#000000;stroke-width:1" d="M880.0 501.0 L880.0 396.0" /><polygon style="fill:#000000; stroke:#000000;" points=" 875 406 880 396 885 406 880 404" /><path style="fill:none; stroke:#000000;stroke-width:1" d="M1032.0 524.0 L1032.0 351.0 L933.0 350.0" /><polygon style="fill:#000000; stroke:#000000;" points=" 943 355 933 350 943 345 941 350" /><path style="fill:none; stroke:#000000;stroke-width:1" d="M933.0 327.0 L986.0 306.0 L1140.0 305.0 L1142.0 881.0" /><polygon style="fill:#000000; stroke:#000000;" points=" 1147 871 1142 881 1137 871 1142 873" /><path style="fill:none; stroke:#000000;stroke-width:1" d="M523.0 749.0 L571.0 746.0" /><polygon style="fill:#000000; stroke:#000000;" points=" 561 742 571 746 561 752 563 746" /><path style="fill:none; stroke:#000000;stroke-width:1" d="M632.0 746.0 L738.0 752.0" /><polygon style="fill:#000000; stroke:#000000;" points=" 728 746 738 752 728 756 730 752" /><path style="fill:none; stroke:#000000;stroke-width:1" d="M1196.0 915.0 L1239.0 915.0" /><polygon style="fill:#000000; stroke:#000000;" points=" 1229 910 1239 915 1229 920 1231 915" /><path style="fill:none; stroke:#000000;stroke-width:1" d="M1446.0 395.0 L1446.0 975.0 L1206.0 975.0 L1178.0 949.0" /><polygon style="fill:#000000; stroke:#000000;" points=" 1182 959 1178 949 1189 952 1184 954" /><path style="fill:none; stroke:#000000;stroke-width:1" d="M1796.0 388.0 L1796.0 1001.0 L1142.0 1001.0 L1142.0 949.0" /><polygon style="fill:#000000; stroke:#000000;" points=" 1137 959 1142 949 1147 959 1142 957" /><path style="fill:none; stroke:#000000;stroke-width:1" d="M1292.0 881.0 L1289.0 379.0" /><polygon style="fill:#000000; stroke:#000000;" points=" 1284 389 1289 379 1294 389 1289 387" /><path style="fill:none; stroke:#000000;stroke-width:1" d="M1342.0 352.0 L1415.0 352.0" /><polygon style="fill:#000000; stroke:#000000;" points=" 1405 347 1415 352 1405 357 1407 352" /><path style="fill:none; stroke:#000000;stroke-width:1" d="M1686.0 349.0 L1766.0 346.0" /><polygon style="fill:#000000; stroke:#000000;" points=" 1756 341 1766 346 1756 351 1758 346" /><path style="fill:none; stroke:#000000;stroke-width:1" d="M1827.0 346.0 L1929.0 349.0" /><polygon style="fill:#000000; stroke:#000000;" points=" 1919 344 1929 349 1919 354 1921 349" /><defs><linearGradient xmlns:xlink="http://www.w3.org/1999/xlink" xlink:href="#linearGradient66FF6696FF96B6FFB6" id="linearGradient66FF6696FF96B6FFB6_1111993231" x1="0" y1="158.0" x2="0" y2="193.0" gradientUnits="userSpaceOnUse" xlink:type="simple" xlink:actuate="onLoad" xlink:show="other" /><linearGradient id="linearGradient66FF6696FF96B6FFB6"><stop style="stop-color:#66FF66;stop-opacity:1;" offset="0.0" id="stop66FF66" /><stop style="stop-color:#96FF96;stop-opacity:1;" offset="0.5" id="stop96FF96" /><stop style="stop-color:#B6FFB6;stop-opacity:1;" offset="1.0" id="stopB6FFB6" /></linearGradient><linearGradient xmlns:xlink="http://www.w3.org/1999/xlink" xlink:href="#linearGradientF8FBFEEDF5FCDEEDFAD4E7F8E2E5E9" id="linearGradientF8FBFEEDF5FCDEEDFAD4E7F8E2E5E9_1867537223" x1="0" y1="130.0" x2="0" y2="236.0" gradientUnits="userSpaceOnUse" xlink:type="simple" xlink:actuate="onLoad" xlink:show="other" /><linearGradient id="linearGradientF8FBFEEDF5FCDEEDFAD4E7F8E2E5E9"><stop style="stop-color:#F8FBFE;stop-opacity:1;" offset="0.0" id="stopF8FBFE" /><stop style="stop-color:#EDF5FC;stop-opacity:1;" offset="0.25" id="stopEDF5FC" /><stop style="stop-color:#DEEDFA;stop-opacity:1;" offset="0.5" id="stopDEEDFA" /><stop style="stop-color:#D4E7F8;stop-opacity:1;" offset="0.75" id="stopD4E7F8" /><stop style="stop-color:#E2E5E9;stop-opacity:1;" offset="1.0" id="stopE2E5E9" /></linearGradient><linearGradient xmlns:xlink="http://www.w3.org/1999/xlink" xlink:href="#linearGradientFAFBFCFFFFCC" id="linearGradientFAFBFCFFFFCC_206443224" x1="0" y1="114.0" x2="0" y2="174.0" gradientUnits="userSpaceOnUse" xlink:type="simple" xlink:actuate="onLoad" xlink:show="other" /><linearGradient id="linearGradientFAFBFCFFFFCC"><stop style="stop-color:#FAFBFC;stop-opacity:1;" offset="0.0" id="stopFAFBFC" /><stop style="stop-color:#FFFFCC;stop-opacity:1;" offset="1.0" id="stopFFFFCC" /></linearGradient><linearGradient xmlns:xlink="http://www.w3.org/1999/xlink" xlink:href="#linearGradientF8FBFEEDF5FCDEEDFAD4E7F8E2E5E9" id="linearGradientF8FBFEEDF5FCDEEDFAD4E7F8E2E5E9_1505175863" x1="0" y1="140.0" x2="0" y2="246.0" gradientUnits="userSpaceOnUse" xlink:type="simple" xlink:actuate="onLoad" xlink:show="other" /><linearGradient xmlns:xlink="http://www.w3.org/1999/xlink" xlink:href="#linearGradientFAFBFCFFFFCC" id="linearGradientFAFBFCFFFFCC_133367781" x1="0" y1="117.0" x2="0" y2="177.0" gradientUnits="userSpaceOnUse" xlink:type="simple" xlink:actuate="onLoad" xlink:show="other" /><linearGradient xmlns:xlink="http://www.w3.org/1999/xlink" xlink:href="#linearGradientFF6666FF9696FFB6B6" id="linearGradientFF6666FF9696FFB6B6_1686851446" x1="0" y1="151.0" x2="0" y2="186.0" gradientUnits="userSpaceOnUse" xlink:type="simple" xlink:actuate="onLoad" xlink:show="other" /><linearGradient id="linearGradientFF6666FF9696FFB6B6"><stop style="stop-color:#FF6666;stop-opacity:1;" offset="0.0" id="stopFF6666" /><stop style="stop-color:#FF9696;stop-opacity:1;" offset="0.5" id="stopFF9696" /><stop style="stop-color:#FFB6B6;stop-opacity:1;" offset="1.0" id="stopFFB6B6" /></linearGradient><linearGradient xmlns:xlink="http://www.w3.org/1999/xlink" xlink:href="#linearGradientF8FBFEEDF5FCDEEDFAD4E7F8E2E5E9" id="linearGradientF8FBFEEDF5FCDEEDFAD4E7F8E2E5E9_1980628875" x1="0" y1="317.0" x2="0" y2="423.0" gradientUnits="userSpaceOnUse" xlink:type="simple" xlink:actuate="onLoad" xlink:show="other" /><linearGradient xmlns:xlink="http://www.w3.org/1999/xlink" xlink:href="#linearGradientFAFBFCFFFFCC" id="linearGradientFAFBFCFFFFCC_285489978" x1="0" y1="294.0" x2="0" y2="354.0" gradientUnits="userSpaceOnUse" xlink:type="simple" xlink:actuate="onLoad" xlink:show="other" /><linearGradient xmlns:xlink="http://www.w3.org/1999/xlink" xlink:href="#linearGradientFAFBFCFFFFCC" id="linearGradientFAFBFCFFFFCC_751592848" x1="0" y1="301.0" x2="0" y2="361.0" gradientUnits="userSpaceOnUse" xlink:type="simple" xlink:actuate="onLoad" xlink:show="other" /><linearGradient xmlns:xlink="http://www.w3.org/1999/xlink" xlink:href="#linearGradientFF6666FF9696FFB6B6" id="linearGradientFF6666FF9696FFB6B6_522184682" x1="0" y1="334.0" x2="0" y2="369.0" gradientUnits="userSpaceOnUse" xlink:type="simple" xlink:actuate="onLoad" xlink:show="other" /><linearGradient xmlns:xlink="http://www.w3.org/1999/xlink" xlink:href="#linearGradientF8FBFEEDF5FCDEEDFAD4E7F8E2E5E9" id="linearGradientF8FBFEEDF5FCDEEDFAD4E7F8E2E5E9_1739768732" x1="0" y1="518.0" x2="0" y2="624.0" gradientUnits="userSpaceOnUse" xlink:type="simple" xlink:actuate="onLoad" xlink:show="other" /><linearGradient xmlns:xlink="http://www.w3.org/1999/xlink" xlink:href="#linearGradientFAFBFCFFFFCC" id="linearGradientFAFBFCFFFFCC_155741172" x1="0" y1="502.0" x2="0" y2="562.0" gradientUnits="userSpaceOnUse" xlink:type="simple" xlink:actuate="onLoad" xlink:show="other" /><linearGradient xmlns:xlink="http://www.w3.org/1999/xlink" xlink:href="#linearGradientFAFBFCFFFFCC" id="linearGradientFAFBFCFFFFCC_1906795758" x1="0" y1="502.0" x2="0" y2="562.0" gradientUnits="userSpaceOnUse" xlink:type="simple" xlink:actuate="onLoad" xlink:show="other" /><linearGradient xmlns:xlink="http://www.w3.org/1999/xlink" xlink:href="#linearGradientF8FBFEEDF5FCDEEDFAD4E7F8E2E5E9" id="linearGradientF8FBFEEDF5FCDEEDFAD4E7F8E2E5E9_617840525" x1="0" y1="525.0" x2="0" y2="631.0" gradientUnits="userSpaceOnUse" xlink:type="simple" xlink:actuate="onLoad" xlink:show="other" /><linearGradient xmlns:xlink="http://www.w3.org/1999/xlink" xlink:href="#linearGradientF8FBFEEDF5FCDEEDFAD4E7F8E2E5E9" id="linearGradientF8FBFEEDF5FCDEEDFAD4E7F8E2E5E9_962270430" x1="0" y1="303.0" x2="0" y2="409.0" gradientUnits="userSpaceOnUse" xlink:type="simple" xlink:actuate="onLoad" xlink:show="other" /><linearGradient xmlns:xlink="http://www.w3.org/1999/xlink" xlink:href="#linearGradientF8FBFEEDF5FCDEEDFAD4E7F8E2E5E9" id="linearGradientF8FBFEEDF5FCDEEDFAD4E7F8E2E5E9_179771453" x1="0" y1="718.0" x2="0" y2="824.0" gradientUnits="userSpaceOnUse" xlink:type="simple" xlink:actuate="onLoad" xlink:show="other" /><linearGradient xmlns:xlink="http://www.w3.org/1999/xlink" xlink:href="#linearGradientF8FBFEEDF5FCDEEDFAD4E7F8E2E5E9" id="linearGradientF8FBFEEDF5FCDEEDFAD4E7F8E2E5E9_2056802889" x1="0" y1="718.0" x2="0" y2="824.0" gradientUnits="userSpaceOnUse" xlink:type="simple" xlink:actuate="onLoad" xlink:show="other" /><linearGradient xmlns:xlink="http://www.w3.org/1999/xlink" xlink:href="#linearGradientFAFBFCFFFFCC" id="linearGradientFAFBFCFFFFCC_641889664" x1="0" y1="702.0" x2="0" y2="762.0" gradientUnits="userSpaceOnUse" xlink:type="simple" xlink:actuate="onLoad" xlink:show="other" /><linearGradient xmlns:xlink="http://www.w3.org/1999/xlink" xlink:href="#linearGradientFF6666FF9696FFB6B6" id="linearGradientFF6666FF9696FFB6B6_1429223967" x1="0" y1="735.0" x2="0" y2="770.0" gradientUnits="userSpaceOnUse" xlink:type="simple" xlink:actuate="onLoad" xlink:show="other" /><linearGradient xmlns:xlink="http://www.w3.org/1999/xlink" xlink:href="#linearGradientF8FBFEEDF5FCDEEDFAD4E7F8E2E5E9" id="linearGradientF8FBFEEDF5FCDEEDFAD4E7F8E2E5E9_1362621674" x1="0" y1="882.0" x2="0" y2="988.0" gradientUnits="userSpaceOnUse" xlink:type="simple" xlink:actuate="onLoad" xlink:show="other" /><linearGradient xmlns:xlink="http://www.w3.org/1999/xlink" xlink:href="#linearGradientF8FBFEEDF5FCDEEDFAD4E7F8E2E5E9" id="linearGradientF8FBFEEDF5FCDEEDFAD4E7F8E2E5E9_816863310" x1="0" y1="882.0" x2="0" y2="988.0" gradientUnits="userSpaceOnUse" xlink:type="simple" xlink:actuate="onLoad" xlink:show="other" /><linearGradient xmlns:xlink="http://www.w3.org/1999/xlink" xlink:href="#linearGradientF8FBFEEDF5FCDEEDFAD4E7F8E2E5E9" id="linearGradientF8FBFEEDF5FCDEEDFAD4E7F8E2E5E9_158695899" x1="0" y1="325.0" x2="0" y2="431.0" gradientUnits="userSpaceOnUse" xlink:type="simple" xlink:actuate="onLoad" xlink:show="other" /><linearGradient xmlns:xlink="http://www.w3.org/1999/xlink" xlink:href="#linearGradientFAFBFCFFFFCC" id="linearGradientFAFBFCFFFFCC_27284919" x1="0" y1="309.0" x2="0" y2="369.0" gradientUnits="userSpaceOnUse" xlink:type="simple" xlink:actuate="onLoad" xlink:show="other" /><linearGradient xmlns:xlink="http://www.w3.org/1999/xlink" xlink:href="#linearGradientF8FBFEEDF5FCDEEDFAD4E7F8E2E5E9" id="linearGradientF8FBFEEDF5FCDEEDFAD4E7F8E2E5E9_1163616822" x1="0" y1="318.0" x2="0" y2="424.0" gradientUnits="userSpaceOnUse" xlink:type="simple" xlink:actuate="onLoad" xlink:show="other" /><linearGradient xmlns:xlink="http://www.w3.org/1999/xlink" xlink:href="#linearGradientFAFBFCFFFFCC" id="linearGradientFAFBFCFFFFCC_1921837772" x1="0" y1="302.0" x2="0" y2="362.0" gradientUnits="userSpaceOnUse" xlink:type="simple" xlink:actuate="onLoad" xlink:show="other" /><linearGradient xmlns:xlink="http://www.w3.org/1999/xlink" xlink:href="#linearGradientF8FBFEEDF5FCDEEDFAD4E7F8E2E5E9" id="linearGradientF8FBFEEDF5FCDEEDFAD4E7F8E2E5E9_25899477" x1="0" y1="318.0" x2="0" y2="424.0" gradientUnits="userSpaceOnUse" xlink:type="simple" xlink:actuate="onLoad" xlink:show="other" /></defs></svg>
