<?xml version="1.0" encoding="UTF-8"?>
<svg xmlns="http://www.w3.org/2000/svg" style="stroke-dasharray:none; shape-rendering:auto; font-family:'Arial'; text-rendering:auto; fill-opacity:1; color-interpolation:auto; color-rendering:auto; font-size:12; fill:black; stroke:black; image-rendering:auto; stroke-miterlimit:10; stroke-linecap:square; stroke-linejoin:miter; font-style:normal; stroke-width:1; stroke-dashoffset:0; font-weight:normal; stroke-opacity:1;" contentScriptType="text/ecmascript" preserveAspectRatio="xMidYMid meet" zoomAndPan="magnify" version="1.0" contentStyleType="text/css" xml:xlink="http://www.w3.org/1999/xlink" width="1645" height="805"><rect x="12" y="312" width="1633" height="145" ry="0" rx="0" style="stroke:#000000; fill:#C9C3AC" /><g componentSequence="19"><text x="-384" y="19" transform="rotate(270)" text-anchor="middle" style="font-weight:bold;font-size:10px;stroke:none; fill:#434343"><tspan dy="14" x="-384">PMO</tspan></text></g><rect x="12" y="600" width="1633" height="205" ry="0" rx="0" style="stroke:#000000; fill:#D6E0D0" /><g componentSequence="14"><text x="-702" y="19" transform="rotate(270)" text-anchor="middle" style="font-weight:bold;font-size:10px;stroke:none; fill:#434343"><tspan dy="14" x="-702">Analista</tspan></text></g><rect x="12" y="456" width="1633" height="145" ry="0" rx="0" style="stroke:#000000; fill:#D0DAAE" /><g componentSequence="4"><text x="-528" y="19" transform="rotate(270)" text-anchor="middle" style="font-weight:bold;font-size:10px;stroke:none; fill:#434343"><tspan dy="14" x="-528">Gestor</tspan></text></g><rect x="12" y="168" width="1633" height="145" ry="0" rx="0" style="stroke:#000000; fill:#ADC9AC" /><g componentSequence="3"><text x="-240" y="19" transform="rotate(270)" text-anchor="middle" style="font-weight:bold;font-size:10px;stroke:none; fill:#434343"><tspan dy="14" x="-240">Líder</tspan></text></g><rect x="12" y="0" width="1633" height="169" ry="0" rx="0" style="stroke:#000000; fill:#82B0B7" /><g componentSequence="1"><text x="-84" y="19" transform="rotate(270)" text-anchor="middle" style="font-weight:bold;font-size:10px;stroke:none; fill:#434343"><tspan dy="14" x="-84">Solicitante</tspan></text></g><g sequence="2"><ellipse cx="125" cy="92" rx="17" ry="17" stroke-width="1" style="fill:url(#linearGradient66FF6696FF96B6FFB6_987875598);" stroke="336633" /></g><g sequence="5"><rect x="72" y="207" width="106" height="70" ry="5" rx="5" style="fill:url(#linearGradientF8FBFEEDF5FCDEEDFAD4E7F8E2E5E9_2028760419);" stroke="191970" /></g><g componentSequence="5"><text x="125" y="231" text-anchor="middle" style="font-weight:bold;font-size:10px;stroke:none; fill:#333399"><tspan dy="14" x="125">Avaliar demanda</tspan></text></g><g sequence="7"><polygon points=" 273 221 303 191 333 221 303 251 273 221" style="fill:url(#linearGradientFAFBFCFFFFCC_903469157);" stroke="000000" /></g><g componentSequence="7"><text x="303" y="261" text-anchor="middle" style="font-weight:bold;font-size:10px;stroke:none; fill:#333399"><tspan dy="14" x="303">Aprovad</tspan><tspan dy="14" x="303">o?</tspan></text></g><g sequence="9"><ellipse cx="451" cy="241" rx="17" ry="17" stroke-width="3" style="fill:url(#linearGradientFF6666FF9696FFB6B6_787217832);" stroke="993333" /></g><g sequence="11"><rect x="531" y="193" width="106" height="98" ry="5" rx="5" style="fill:url(#linearGradientF8FBFEEDF5FCDEEDFAD4E7F8E2E5E9_452389058);" stroke="191970" /></g><g componentSequence="11"><text x="584" y="208" text-anchor="middle" style="font-weight:bold;font-size:10px;stroke:none; fill:#333399"><tspan dy="14" x="584">Distribuir</tspan><tspan dy="14" x="584">demandas /</tspan><tspan dy="14" x="584">Abrir tarefas no</tspan><tspan dy="14" x="584">Jira</tspan></text></g><g sequence="15"><rect x="531" y="633" width="106" height="70" ry="5" rx="5" style="fill:url(#linearGradientF8FBFEEDF5FCDEEDFAD4E7F8E2E5E9_32115082);" stroke="191970" /></g><g componentSequence="15"><text x="584" y="648" text-anchor="middle" style="font-weight:bold;font-size:10px;stroke:none; fill:#333399"><tspan dy="14" x="584">Executar</tspan><tspan dy="14" x="584">demanda</tspan></text></g><g sequence="17"><rect x="747" y="633" width="106" height="70" ry="5" rx="5" style="fill:url(#linearGradientF8FBFEEDF5FCDEEDFAD4E7F8E2E5E9_2047599394);" stroke="191970" /></g><g componentSequence="17"><text x="800" y="648" text-anchor="middle" style="font-weight:bold;font-size:10px;stroke:none; fill:#333399"><tspan dy="14" x="800">Apontar horas</tspan><tspan dy="14" x="800">no Jira/PMS</tspan></text></g><g sequence="20"><rect x="249" y="344" width="106" height="84" ry="5" rx="5" style="fill:url(#linearGradientF8FBFEEDF5FCDEEDFAD4E7F8E2E5E9_192694134);" stroke="191970" /></g><g componentSequence="20"><text x="302" y="359" text-anchor="middle" style="font-weight:bold;font-size:10px;stroke:none; fill:#333399"><tspan dy="14" x="302">Associar</tspan><tspan dy="14" x="302">demanda ao</tspan><tspan dy="14" x="302">CFP/CC</tspan></text></g><g sequence="22"><rect x="744" y="351" width="106" height="70" ry="5" rx="5" style="fill:url(#linearGradientF8FBFEEDF5FCDEEDFAD4E7F8E2E5E9_652287523);" stroke="191970" /></g><g componentSequence="22"><text x="797" y="366" text-anchor="middle" style="font-weight:bold;font-size:10px;stroke:none; fill:#333399"><tspan dy="14" x="797">Aguardar</tspan><tspan dy="14" x="797">aprovação</tspan></text></g><g sequence="23"><polygon points=" 554 358 584 328 614 358 584 388 554 358" style="fill:url(#linearGradientFAFBFCFFFFCC_1997993260);" stroke="000000" /></g><g componentSequence="23"><text x="584" y="398" text-anchor="middle" style="font-weight:bold;font-size:10px;stroke:none; fill:#333399"><tspan dy="14" x="584">Projeto</tspan><tspan dy="14" x="584">de</tspan><tspan dy="14" x="584">Inves...</tspan></text></g><g sequence="28"><rect x="938" y="214" width="106" height="56" ry="5" rx="5" style="fill:url(#linearGradientF8FBFEEDF5FCDEEDFAD4E7F8E2E5E9_1386285599);" stroke="191970" /></g><g componentSequence="28"><text x="991" y="231" text-anchor="middle" style="font-weight:bold;font-size:10px;stroke:none; fill:#333399"><tspan dy="14" x="991">Validar solução</tspan></text></g><g sequence="30"><rect x="1132" y="64" width="106" height="56" ry="5" rx="5" style="fill:url(#linearGradientF8FBFEEDF5FCDEEDFAD4E7F8E2E5E9_999272650);" stroke="191970" /></g><g componentSequence="30"><text x="1185" y="81" text-anchor="middle" style="font-weight:bold;font-size:10px;stroke:none; fill:#333399"><tspan dy="14" x="1185">Avaliar solução</tspan></text></g><g sequence="32"><polygon points=" 1154 228 1184 198 1214 228 1184 258 1154 228" style="fill:url(#linearGradientFAFBFCFFFFCC_355574174);" stroke="000000" /></g><g componentSequence="32"><text x="1184" y="261" text-anchor="middle" style="font-weight:bold;font-size:10px;stroke:none; fill:#333399"><tspan dy="14" x="1184">Válido?</tspan></text></g><g sequence="36"><polygon points=" 1371 71 1401 41 1431 71 1401 101 1371 71" style="fill:url(#linearGradientFAFBFCFFFFCC_1439603073);" stroke="000000" /></g><g componentSequence="36"><text x="1401" y="111" text-anchor="middle" style="font-weight:bold;font-size:10px;stroke:none; fill:#333399"><tspan dy="14" x="1401">Aprovad</tspan><tspan dy="14" x="1401">o?</tspan></text></g><g sequence="39"><ellipse cx="1580" cy="92" rx="17" ry="17" stroke-width="3" style="fill:url(#linearGradientFF6666FF9696FFB6B6_258310357);" stroke="993333" /></g><rect x="975" y="58" width="105" height="69" ry="5" rx="5" style="stroke:none; fill:#FFFFE0" /><g componentSequence="41"><text x="985" y="81" text-anchor="left" style="font-weight:bold;font-size:10px;stroke:none; fill:#000000"><tspan dy="14" x="985">Deadline de 1</tspan><tspan dy="14" x="985">semana para</tspan><tspan dy="14" x="985">aprovação</tspan></text></g><path style="fill:none; stroke-width:1; stroke:#000000;" d="M995.0 58.0 L975.0 58.0 L975.0 127.0 L995.0 127.0" /><g sequence="43"><rect x="73" y="490" width="106" height="70" ry="5" rx="5" style="fill:url(#linearGradientF8FBFEEDF5FCDEEDFAD4E7F8E2E5E9_1890354376);" stroke="191970" /></g><g componentSequence="43"><text x="126" y="505" text-anchor="middle" style="font-weight:bold;font-size:10px;stroke:none; fill:#333399"><tspan dy="14" x="126">Aprovar</tspan><tspan dy="14" x="126">execução</tspan></text></g><g componentSequence="6"><text x="135" y="146" style="font-size:10px;font-weight:none;stroke:none; fill:#333399" text-anchor="left" /></g><g componentSequence="8"><text x="235" y="230" style="font-size:10px;font-weight:none;stroke:none; fill:#333399" text-anchor="left" /></g><g componentSequence="16"><text x="902" y="436" style="font-size:10px;font-weight:none;stroke:none; fill:#333399" text-anchor="left" /></g><g componentSequence="18"><text x="702" y="656" style="font-size:10px;font-weight:none;stroke:none; fill:#333399" text-anchor="left" /></g><g componentSequence="21"><text x="312" y="276" style="font-size:10px;font-weight:none;stroke:none; fill:#333399" text-anchor="left"><tspan dy="14" x="312">Aprovado</tspan></text></g><g componentSequence="24"><text x="464" y="374" style="font-size:10px;font-weight:none;stroke:none; fill:#333399" text-anchor="left" /></g><g componentSequence="25"><text x="624" y="359" style="font-size:10px;font-weight:none;stroke:none; fill:#333399" text-anchor="left"><tspan dy="14" x="624">Sim</tspan></text></g><g componentSequence="26"><text x="600" y="308" style="font-size:10px;font-weight:none;stroke:none; fill:#333399" text-anchor="left"><tspan dy="14" x="600">Não</tspan></text></g><g componentSequence="27"><text x="782" y="229" style="font-size:10px;font-weight:none;stroke:none; fill:#333399" text-anchor="left" /></g><g componentSequence="29"><text x="1000" y="525" style="font-size:10px;font-weight:none;stroke:none; fill:#333399" text-anchor="left" /></g><g componentSequence="33"><text x="1109" y="230" style="font-size:10px;font-weight:none;stroke:none; fill:#333399" text-anchor="left" /></g><g componentSequence="34"><text x="1188" y="168" style="font-size:10px;font-weight:none;stroke:none; fill:#333399" text-anchor="left"><tspan dy="14" x="1188">Sim</tspan></text></g><g componentSequence="35"><text x="1188" y="276" style="font-size:10px;font-weight:none;stroke:none; fill:#333399" text-anchor="left"><tspan dy="14" x="1188">Nâo</tspan></text></g><g componentSequence="37"><text x="1314" y="80" style="font-size:10px;font-weight:none;stroke:none; fill:#333399" text-anchor="left" /></g><g componentSequence="40"><text x="1440" y="60" style="font-size:10px;font-weight:none;stroke:none; fill:#333399" text-anchor="left"><tspan dy="14" x="1440">Aprovado</tspan></text></g><g componentSequence="42"><text x="1116" y="80" style="font-size:10px;font-weight:none;stroke:none; fill:#333399" text-anchor="left" /></g><g componentSequence="45"><text x="1320" y="24" style="font-size:10px;font-weight:none;stroke:none; fill:#333399" text-anchor="left"><tspan dy="14" x="1320">Reprovado</tspan></text></g><g componentSequence="46"><text x="135" y="371" style="font-size:10px;font-weight:none;stroke:none; fill:#333399" text-anchor="left" /></g><g componentSequence="47"><text x="225" y="396" style="font-size:10px;font-weight:none;stroke:none; fill:#333399" text-anchor="left" /></g><g componentSequence="48"><text x="1314" y="80" style="font-size:10px;font-weight:none;stroke:none; fill:#333399" text-anchor="left" /></g><path style="fill:none; stroke:#F00000;stroke-width:1" d="M125.0 110.0 L125.0 206.0" /><polygon style="fill:#F00000; stroke:#F00000;" points=" 130 196 125 206 120 196 125 198" /><polygon style="fill:#F00000; stroke:#F00000;" points=" 120 120 125 110 130 120 125 118" /><path style="fill:none; stroke:#000000;stroke-width:1" d="M178.0 242.0 L272.0 242.0" /><polygon style="fill:#000000; stroke:#000000;" points=" 262 237 272 242 262 247 264 242" /><path style="fill:none; stroke:#000000;stroke-width:1" d="M125.0 277.0 L125.0 489.0" /><polygon style="fill:#000000; stroke:#000000;" points=" 130 479 125 489 120 479 125 481" /><path style="fill:none; stroke:#000000;stroke-width:1" d="M179.0 525.0 L215.0 525.0 L215.0 387.0 L215.0 300.0 L178.0 276.0" /><polygon style="fill:#000000; stroke:#000000;" points=" 184 286 178 276 189 277 185 280" /><path style="fill:none; stroke:#000000;stroke-width:1" d="M333.0 241.0 L434.0 241.0" /><polygon style="fill:#000000; stroke:#000000;" points=" 424 236 434 241 424 246 426 241" /><path style="fill:none; stroke:#F00000;stroke-width:1" d="M302.0 293.0 L302.0 343.0" /><polygon style="fill:#F00000; stroke:#F00000;" points=" 307 333 302 343 297 333 302 335" /><polygon style="fill:#F00000; stroke:#F00000;" points=" 297 303 302 293 307 303 302 301" /><path style="fill:none; stroke:#000000;stroke-width:1" d="M637.0 221.0 L663.0 211.0 L892.0 211.0 L892.0 521.0 L583.0 521.0 L583.0 632.0" /><polygon style="fill:#000000; stroke:#000000;" points=" 588 622 583 632 578 622 583 624" /><path style="fill:none; stroke:#000000;stroke-width:1" d="M584.0 327.0 L584.0 291.0" /><polygon style="fill:#000000; stroke:#000000;" points=" 579 301 584 291 589 301 584 299" /><path style="fill:none; stroke:#000000;stroke-width:1" d="M797.0 350.0 L797.0 241.0 L637.0 241.0" /><polygon style="fill:#000000; stroke:#000000;" points=" 647 246 637 241 647 236 645 241" /><path style="fill:none; stroke:#000000;stroke-width:1" d="M1401.0 40.0 L1401.0 26.0 L583.0 26.0 L583.0 192.0" /><polygon style="fill:#000000; stroke:#000000;" points=" 588 182 583 192 578 182 583 184" /><path style="fill:none; stroke:#000000;stroke-width:1" d="M637.0 668.0 L746.0 668.0" /><polygon style="fill:#000000; stroke:#000000;" points=" 736 663 746 668 736 673 738 668" /><path style="fill:none; stroke:#000000;stroke-width:1" d="M1183.0 286.0 L1183.0 762.0 L583.0 762.0 L583.0 703.0" /><polygon style="fill:#000000; stroke:#000000;" points=" 578 713 583 703 588 713 583 711" /><path style="fill:none; stroke:#000000;stroke-width:1" d="M853.0 667.0 L990.0 667.0 L990.0 270.0" /><polygon style="fill:#000000; stroke:#000000;" points=" 985 280 990 270 995 280 990 278" /><path style="fill:none; stroke:#000000;stroke-width:1" d="M355.0 386.0 L553.0 386.0" /><polygon style="fill:#000000; stroke:#000000;" points=" 543 381 553 386 543 391 545 386" /><path style="fill:none; stroke:#000000;stroke-width:1" d="M614.0 386.0 L743.0 386.0" /><polygon style="fill:#000000; stroke:#000000;" points=" 733 381 743 386 733 391 735 386" /><path style="fill:none; stroke:#000000;stroke-width:1" d="M1044.0 242.0 L1153.0 242.0" /><polygon style="fill:#000000; stroke:#000000;" points=" 1143 237 1153 242 1143 247 1145 242" /><path style="fill:none; stroke:#009600;stroke-width:1" d="M1238.0 92.0 L1370.0 92.0" /><polygon style="fill:#009600; stroke:#009600;" points=" 1360 87 1370 92 1360 97 1362 92" /><path style="fill:none; stroke:#000000;stroke-width:1" d="M1238.0 92.0 L1370.0 92.0" /><polygon style="fill:#000000; stroke:#000000;" points=" 1360 87 1370 92 1360 97 1362 92" /><path style="fill:none; stroke:#000000;stroke-width:1" d="M1184.0 197.0 L1184.0 120.0" /><polygon style="fill:#000000; stroke:#000000;" points=" 1179 130 1184 120 1189 130 1184 128" /><path style="fill:none; stroke:#000000;stroke-dasharray:2" d="M1080.0 92.0 L1131.0 92.0" /><path style="fill:none; stroke:#000000;stroke-width:1" d="M1431.0 92.0 L1562.0 92.0" /><polygon style="fill:#000000; stroke:#000000;" points=" 1552 87 1562 92 1552 97 1554 92" /><defs><linearGradient xmlns:xlink="http://www.w3.org/1999/xlink" xlink:href="#linearGradient66FF6696FF96B6FFB6" id="linearGradient66FF6696FF96B6FFB6_987875598" x1="0" y1="75.0" x2="0" y2="110.0" gradientUnits="userSpaceOnUse" xlink:type="simple" xlink:actuate="onLoad" xlink:show="other" /><linearGradient id="linearGradient66FF6696FF96B6FFB6"><stop style="stop-color:#66FF66;stop-opacity:1;" offset="0.0" id="stop66FF66" /><stop style="stop-color:#96FF96;stop-opacity:1;" offset="0.5" id="stop96FF96" /><stop style="stop-color:#B6FFB6;stop-opacity:1;" offset="1.0" id="stopB6FFB6" /></linearGradient><linearGradient xmlns:xlink="http://www.w3.org/1999/xlink" xlink:href="#linearGradientF8FBFEEDF5FCDEEDFAD4E7F8E2E5E9" id="linearGradientF8FBFEEDF5FCDEEDFAD4E7F8E2E5E9_2028760419" x1="0" y1="207.0" x2="0" y2="313.0" gradientUnits="userSpaceOnUse" xlink:type="simple" xlink:actuate="onLoad" xlink:show="other" /><linearGradient id="linearGradientF8FBFEEDF5FCDEEDFAD4E7F8E2E5E9"><stop style="stop-color:#F8FBFE;stop-opacity:1;" offset="0.0" id="stopF8FBFE" /><stop style="stop-color:#EDF5FC;stop-opacity:1;" offset="0.25" id="stopEDF5FC" /><stop style="stop-color:#DEEDFA;stop-opacity:1;" offset="0.5" id="stopDEEDFA" /><stop style="stop-color:#D4E7F8;stop-opacity:1;" offset="0.75" id="stopD4E7F8" /><stop style="stop-color:#E2E5E9;stop-opacity:1;" offset="1.0" id="stopE2E5E9" /></linearGradient><linearGradient xmlns:xlink="http://www.w3.org/1999/xlink" xlink:href="#linearGradientFAFBFCFFFFCC" id="linearGradientFAFBFCFFFFCC_903469157" x1="0" y1="191.0" x2="0" y2="251.0" gradientUnits="userSpaceOnUse" xlink:type="simple" xlink:actuate="onLoad" xlink:show="other" /><linearGradient id="linearGradientFAFBFCFFFFCC"><stop style="stop-color:#FAFBFC;stop-opacity:1;" offset="0.0" id="stopFAFBFC" /><stop style="stop-color:#FFFFCC;stop-opacity:1;" offset="1.0" id="stopFFFFCC" /></linearGradient><linearGradient xmlns:xlink="http://www.w3.org/1999/xlink" xlink:href="#linearGradientFF6666FF9696FFB6B6" id="linearGradientFF6666FF9696FFB6B6_787217832" x1="0" y1="224.0" x2="0" y2="259.0" gradientUnits="userSpaceOnUse" xlink:type="simple" xlink:actuate="onLoad" xlink:show="other" /><linearGradient id="linearGradientFF6666FF9696FFB6B6"><stop style="stop-color:#FF6666;stop-opacity:1;" offset="0.0" id="stopFF6666" /><stop style="stop-color:#FF9696;stop-opacity:1;" offset="0.5" id="stopFF9696" /><stop style="stop-color:#FFB6B6;stop-opacity:1;" offset="1.0" id="stopFFB6B6" /></linearGradient><linearGradient xmlns:xlink="http://www.w3.org/1999/xlink" xlink:href="#linearGradientF8FBFEEDF5FCDEEDFAD4E7F8E2E5E9" id="linearGradientF8FBFEEDF5FCDEEDFAD4E7F8E2E5E9_452389058" x1="0" y1="193.0" x2="0" y2="299.0" gradientUnits="userSpaceOnUse" xlink:type="simple" xlink:actuate="onLoad" xlink:show="other" /><linearGradient xmlns:xlink="http://www.w3.org/1999/xlink" xlink:href="#linearGradientF8FBFEEDF5FCDEEDFAD4E7F8E2E5E9" id="linearGradientF8FBFEEDF5FCDEEDFAD4E7F8E2E5E9_32115082" x1="0" y1="633.0" x2="0" y2="739.0" gradientUnits="userSpaceOnUse" xlink:type="simple" xlink:actuate="onLoad" xlink:show="other" /><linearGradient xmlns:xlink="http://www.w3.org/1999/xlink" xlink:href="#linearGradientF8FBFEEDF5FCDEEDFAD4E7F8E2E5E9" id="linearGradientF8FBFEEDF5FCDEEDFAD4E7F8E2E5E9_2047599394" x1="0" y1="633.0" x2="0" y2="739.0" gradientUnits="userSpaceOnUse" xlink:type="simple" xlink:actuate="onLoad" xlink:show="other" /><linearGradient xmlns:xlink="http://www.w3.org/1999/xlink" xlink:href="#linearGradientF8FBFEEDF5FCDEEDFAD4E7F8E2E5E9" id="linearGradientF8FBFEEDF5FCDEEDFAD4E7F8E2E5E9_192694134" x1="0" y1="344.0" x2="0" y2="450.0" gradientUnits="userSpaceOnUse" xlink:type="simple" xlink:actuate="onLoad" xlink:show="other" /><linearGradient xmlns:xlink="http://www.w3.org/1999/xlink" xlink:href="#linearGradientF8FBFEEDF5FCDEEDFAD4E7F8E2E5E9" id="linearGradientF8FBFEEDF5FCDEEDFAD4E7F8E2E5E9_652287523" x1="0" y1="351.0" x2="0" y2="457.0" gradientUnits="userSpaceOnUse" xlink:type="simple" xlink:actuate="onLoad" xlink:show="other" /><linearGradient xmlns:xlink="http://www.w3.org/1999/xlink" xlink:href="#linearGradientFAFBFCFFFFCC" id="linearGradientFAFBFCFFFFCC_1997993260" x1="0" y1="328.0" x2="0" y2="388.0" gradientUnits="userSpaceOnUse" xlink:type="simple" xlink:actuate="onLoad" xlink:show="other" /><linearGradient xmlns:xlink="http://www.w3.org/1999/xlink" xlink:href="#linearGradientF8FBFEEDF5FCDEEDFAD4E7F8E2E5E9" id="linearGradientF8FBFEEDF5FCDEEDFAD4E7F8E2E5E9_1386285599" x1="0" y1="214.0" x2="0" y2="320.0" gradientUnits="userSpaceOnUse" xlink:type="simple" xlink:actuate="onLoad" xlink:show="other" /><linearGradient xmlns:xlink="http://www.w3.org/1999/xlink" xlink:href="#linearGradientF8FBFEEDF5FCDEEDFAD4E7F8E2E5E9" id="linearGradientF8FBFEEDF5FCDEEDFAD4E7F8E2E5E9_999272650" x1="0" y1="64.0" x2="0" y2="170.0" gradientUnits="userSpaceOnUse" xlink:type="simple" xlink:actuate="onLoad" xlink:show="other" /><linearGradient xmlns:xlink="http://www.w3.org/1999/xlink" xlink:href="#linearGradientFAFBFCFFFFCC" id="linearGradientFAFBFCFFFFCC_355574174" x1="0" y1="198.0" x2="0" y2="258.0" gradientUnits="userSpaceOnUse" xlink:type="simple" xlink:actuate="onLoad" xlink:show="other" /><linearGradient xmlns:xlink="http://www.w3.org/1999/xlink" xlink:href="#linearGradientFAFBFCFFFFCC" id="linearGradientFAFBFCFFFFCC_1439603073" x1="0" y1="41.0" x2="0" y2="101.0" gradientUnits="userSpaceOnUse" xlink:type="simple" xlink:actuate="onLoad" xlink:show="other" /><linearGradient xmlns:xlink="http://www.w3.org/1999/xlink" xlink:href="#linearGradientFF6666FF9696FFB6B6" id="linearGradientFF6666FF9696FFB6B6_258310357" x1="0" y1="75.0" x2="0" y2="110.0" gradientUnits="userSpaceOnUse" xlink:type="simple" xlink:actuate="onLoad" xlink:show="other" /><linearGradient xmlns:xlink="http://www.w3.org/1999/xlink" xlink:href="#linearGradientF8FBFEEDF5FCDEEDFAD4E7F8E2E5E9" id="linearGradientF8FBFEEDF5FCDEEDFAD4E7F8E2E5E9_1890354376" x1="0" y1="490.0" x2="0" y2="596.0" gradientUnits="userSpaceOnUse" xlink:type="simple" xlink:actuate="onLoad" xlink:show="other" /></defs></svg>
