<?xml version="1.0" encoding="UTF-8"?>
<svg xmlns="http://www.w3.org/2000/svg" style="stroke-dasharray:none; shape-rendering:auto; font-family:'Arial'; text-rendering:auto; fill-opacity:1; color-interpolation:auto; color-rendering:auto; font-size:12; fill:black; stroke:black; image-rendering:auto; stroke-miterlimit:10; stroke-linecap:square; stroke-linejoin:miter; font-style:normal; stroke-width:1; stroke-dashoffset:0; font-weight:normal; stroke-opacity:1;" contentScriptType="text/ecmascript" preserveAspectRatio="xMidYMid meet" zoomAndPan="magnify" version="1.0" contentStyleType="text/css" xml:xlink="http://www.w3.org/1999/xlink" width="973" height="440"><rect x="0" y="0" width="973" height="174" ry="0" rx="0" style="stroke:#000000; fill:#FFFF9B" /><g componentSequence="1"><text x="-87" y="6" transform="rotate(270)" text-anchor="middle" style="font-weight:bold;font-size:10px;stroke:none; fill:#434343"><tspan dy="14" x="-87">Coordenador</tspan></text></g><rect x="0" y="172" width="973" height="268" ry="0" rx="0" style="stroke:#000000; fill:#B9DCFF" /><g componentSequence="2"><text x="-306" y="6" transform="rotate(270)" text-anchor="middle" style="font-weight:bold;font-size:10px;stroke:none; fill:#434343"><tspan dy="14" x="-306">Gerente</tspan></text></g><g sequence="1"><ellipse cx="105" cy="88" rx="17" ry="17" stroke-width="1" style="fill:url(#linearGradient66FF6696FF96B6FFB6_964513879);" stroke="336633" /></g><g sequence="2"><rect x="235" y="274" width="106" height="67" ry="5" rx="5" style="fill:url(#linearGradientF8FBFEEDF5FCDEEDFAD4E7F8E2E5E9_1378196797);" stroke="191970" /></g><g componentSequence="2"><text x="288" y="289" text-anchor="middle" style="font-weight:bold;font-size:10px;stroke:none; fill:#333399"><tspan dy="14" x="288">Aprovar Novo</tspan><tspan dy="14" x="288">Indicador</tspan></text></g><g sequence="3"><rect x="455" y="61" width="106" height="54" ry="5" rx="5" style="fill:url(#linearGradientF8FBFEEDF5FCDEEDFAD4E7F8E2E5E9_594950637);" stroke="191970" /></g><g componentSequence="3"><text x="508" y="77" text-anchor="middle" style="font-weight:bold;font-size:10px;stroke:none; fill:#333399"><tspan dy="14" x="508">Apurar</tspan></text></g><g sequence="4"><rect x="814" y="297" width="106" height="54" ry="5" rx="5" style="fill:url(#linearGradientF8FBFEEDF5FCDEEDFAD4E7F8E2E5E9_651495627);" stroke="191970" /></g><g componentSequence="4"><text x="867" y="313" text-anchor="middle" style="font-weight:bold;font-size:10px;stroke:none; fill:#333399"><tspan dy="14" x="867">Avaliar</tspan></text></g><g sequence="5"><ellipse cx="866" cy="408" rx="17" ry="17" stroke-width="3" style="fill:url(#linearGradientFF6666FF9696FFB6B6_1815370583);" stroke="993333" /></g><g sequence="6"><rect x="639" y="60" width="106" height="67" ry="5" rx="5" style="fill:url(#linearGradientF8FBFEEDF5FCDEEDFAD4E7F8E2E5E9_1633215552);" stroke="191970" /></g><g componentSequence="6"><text x="692" y="75" text-anchor="middle" style="font-weight:bold;font-size:10px;stroke:none; fill:#333399"><tspan dy="14" x="692">Revisar</tspan><tspan dy="14" x="692">Indicador</tspan></text></g><g sequence="7"><rect x="640" y="236" width="106" height="80" ry="5" rx="5" style="fill:url(#linearGradientF8FBFEEDF5FCDEEDFAD4E7F8E2E5E9_317806510);" stroke="191970" /></g><g componentSequence="7"><text x="693" y="251" text-anchor="middle" style="font-weight:bold;font-size:10px;stroke:none; fill:#333399"><tspan dy="14" x="693">Aprovar Revisão</tspan><tspan dy="14" x="693">Indicador</tspan></text></g><rect x="138" y="9" width="105" height="55" ry="5" rx="5" style="stroke:none; fill:#FFFFE0" /><g componentSequence="1"><text x="148" y="32" text-anchor="left" style="font-weight:bold;font-size:10px;stroke:none; fill:#000000"><tspan dy="14" x="148">Cadastro de</tspan><tspan dy="14" x="148">Indicadores</tspan></text></g><path style="fill:none; stroke-width:1; stroke:#000000;" d="M158.0 9.0 L138.0 9.0 L138.0 64.0 L158.0 64.0" /><rect x="712" y="371" width="105" height="55" ry="5" rx="5" style="stroke:none; fill:#FFFFE0" /><g componentSequence="2"><text x="722" y="384" text-anchor="left" style="font-weight:bold;font-size:10px;stroke:none; fill:#000000"><tspan dy="14" x="722">Fim</tspan></text></g><path style="fill:none; stroke-width:1; stroke:#000000;" d="M732.0 371.0 L712.0 371.0 L712.0 426.0 L732.0 426.0" /><g sequence="14"><polygon points=" 75 281 105 251 135 281 105 311 75 281" style="fill:url(#linearGradientFAFBFCFFFFCC_582183481);" stroke="000000" /></g><g componentSequence="14"><text x="105" y="321" text-anchor="middle" style="font-weight:bold;font-size:10px;stroke:none; fill:#333399"><tspan dy="14" x="105">Selecion</tspan><tspan dy="14" x="105">ar</tspan><tspan dy="14" x="105">Colab...</tspan></text></g><g sequence="18"><polygon points=" 259 61 289 31 319 61 289 91 259 61" style="fill:url(#linearGradientFAFBFCFFFFCC_822269435);" stroke="000000" /></g><g componentSequence="18"><text x="289" y="101" text-anchor="middle" style="font-weight:bold;font-size:10px;stroke:none; fill:#333399"><tspan dy="14" x="289">Retornar</tspan><tspan dy="14" x="289">ao</tspan><tspan dy="14" x="289">Solicit...</tspan></text></g><g componentSequence="2"><text x="429" y="220" style="font-size:10px;font-weight:none;stroke:none; fill:#333399" text-anchor="left" /></g><g componentSequence="3"><text x="566" y="324" style="font-size:10px;font-weight:none;stroke:none; fill:#333399" text-anchor="left" /></g><g componentSequence="5"><text x="884" y="21" style="font-size:10px;font-weight:none;stroke:none; fill:#333399" text-anchor="left" /></g><g componentSequence="6"><text x="876" y="134" style="font-size:10px;font-weight:none;stroke:none; fill:#333399" text-anchor="left" /></g><g componentSequence="9"><text x="702" y="181" style="font-size:10px;font-weight:none;stroke:none; fill:#333399" text-anchor="left" /></g><g componentSequence="10"><text x="702" y="181" style="font-size:10px;font-weight:none;stroke:none; fill:#333399" text-anchor="left" /></g><g componentSequence="11"><text x="598" y="196" style="font-size:10px;font-weight:none;stroke:none; fill:#333399" text-anchor="left" /></g><g componentSequence="12"><text x="144" y="71" style="font-size:10px;font-weight:none;stroke:none; fill:#333399" text-anchor="left" /></g><g componentSequence="13"><text x="843" y="405" style="font-size:10px;font-weight:none;stroke:none; fill:#333399" text-anchor="left" /></g><g componentSequence="15"><text x="195" y="307" style="font-size:10px;font-weight:none;stroke:none; fill:#333399" text-anchor="left" /></g><g componentSequence="16"><text x="115" y="178" style="font-size:10px;font-weight:none;stroke:none; fill:#333399" text-anchor="left" /></g><g componentSequence="19"><text x="298" y="208" style="font-size:10px;font-weight:none;stroke:none; fill:#333399" text-anchor="left" /></g><g componentSequence="20"><text x="201" y="88" style="font-size:10px;font-weight:none;stroke:none; fill:#333399" text-anchor="left" /></g><path style="fill:none; stroke:#000000;stroke-width:1" d="M105.0 106.0 L105.0 250.0" /><polygon style="fill:#000000; stroke:#000000;" points=" 110 240 105 250 100 240 105 242" /><path style="fill:none; stroke:#000000;stroke-dasharray:2" d="M144.0 64.0 L120.0 79.0" /><path style="fill:none; stroke:#000000;stroke-width:1" d="M258.0 87.0 L122.0 88.0" /><polygon style="fill:#000000; stroke:#000000;" points=" 132 93 122 88 132 83 130 88" /><path style="fill:none; stroke:#000000;stroke-width:1" d="M341.0 308.0 L419.0 309.0 L419.0 88.0 L454.0 88.0" /><polygon style="fill:#000000; stroke:#000000;" points=" 444 83 454 88 444 93 446 88" /><path style="fill:none; stroke:#000000;stroke-width:1" d="M288.0 273.0 L288.0 143.0" /><polygon style="fill:#000000; stroke:#000000;" points=" 283 153 288 143 293 153 288 151" /><path style="fill:none; stroke:#000000;stroke-width:1" d="M135.0 307.0 L234.0 307.0" /><polygon style="fill:#000000; stroke:#000000;" points=" 224 302 234 307 224 312 226 307" /><path style="fill:none; stroke:#000000;stroke-width:1" d="M507.0 115.0 L507.0 324.0 L813.0 324.0" /><polygon style="fill:#000000; stroke:#000000;" points=" 803 319 813 324 803 329 805 324" /><path style="fill:none; stroke:#000000;stroke-width:1" d="M920.0 324.0 L948.0 325.0 L948.0 21.0 L507.0 21.0 L507.0 60.0" /><polygon style="fill:#000000; stroke:#000000;" points=" 512 50 507 60 502 50 507 52" /><path style="fill:none; stroke:#000000;stroke-width:1" d="M639.0 276.0 L588.0 277.0 L588.0 92.0 L561.0 90.0" /><polygon style="fill:#000000; stroke:#000000;" points=" 571 96 561 90 571 86 569 91" /><path style="fill:none; stroke:#000000;stroke-width:1" d="M866.0 351.0 L866.0 391.0" /><polygon style="fill:#000000; stroke:#000000;" points=" 871 381 866 391 861 381 866 383" /><path style="fill:none; stroke:#000000;stroke-width:1" d="M866.0 296.0 L866.0 94.0 L745.0 93.0" /><polygon style="fill:#000000; stroke:#000000;" points=" 755 98 745 93 755 88 753 93" /><path style="fill:none; stroke:#000000;stroke-dasharray:2" d="M817.0 403.0 L849.0 407.0" /><path style="fill:none; stroke:#000000;stroke-width:1" d="M692.0 127.0 L692.0 235.0" /><polygon style="fill:#000000; stroke:#000000;" points=" 697 225 692 235 687 225 692 227" /><path style="fill:none; stroke:#000000;stroke-width:1" d="M692.0 235.0 L692.0 127.0" /><polygon style="fill:#000000; stroke:#000000;" points=" 687 137 692 127 697 137 692 135" /><defs><linearGradient xmlns:xlink="http://www.w3.org/1999/xlink" xlink:href="#linearGradient66FF6696FF96B6FFB6" id="linearGradient66FF6696FF96B6FFB6_964513879" x1="0" y1="71.0" x2="0" y2="106.0" gradientUnits="userSpaceOnUse" xlink:type="simple" xlink:actuate="onLoad" xlink:show="other" /><linearGradient id="linearGradient66FF6696FF96B6FFB6"><stop style="stop-color:#66FF66;stop-opacity:1;" offset="0.0" id="stop66FF66" /><stop style="stop-color:#96FF96;stop-opacity:1;" offset="0.5" id="stop96FF96" /><stop style="stop-color:#B6FFB6;stop-opacity:1;" offset="1.0" id="stopB6FFB6" /></linearGradient><linearGradient xmlns:xlink="http://www.w3.org/1999/xlink" xlink:href="#linearGradientF8FBFEEDF5FCDEEDFAD4E7F8E2E5E9" id="linearGradientF8FBFEEDF5FCDEEDFAD4E7F8E2E5E9_1378196797" x1="0" y1="274.0" x2="0" y2="380.0" gradientUnits="userSpaceOnUse" xlink:type="simple" xlink:actuate="onLoad" xlink:show="other" /><linearGradient id="linearGradientF8FBFEEDF5FCDEEDFAD4E7F8E2E5E9"><stop style="stop-color:#F8FBFE;stop-opacity:1;" offset="0.0" id="stopF8FBFE" /><stop style="stop-color:#EDF5FC;stop-opacity:1;" offset="0.25" id="stopEDF5FC" /><stop style="stop-color:#DEEDFA;stop-opacity:1;" offset="0.5" id="stopDEEDFA" /><stop style="stop-color:#D4E7F8;stop-opacity:1;" offset="0.75" id="stopD4E7F8" /><stop style="stop-color:#E2E5E9;stop-opacity:1;" offset="1.0" id="stopE2E5E9" /></linearGradient><linearGradient xmlns:xlink="http://www.w3.org/1999/xlink" xlink:href="#linearGradientF8FBFEEDF5FCDEEDFAD4E7F8E2E5E9" id="linearGradientF8FBFEEDF5FCDEEDFAD4E7F8E2E5E9_594950637" x1="0" y1="61.0" x2="0" y2="167.0" gradientUnits="userSpaceOnUse" xlink:type="simple" xlink:actuate="onLoad" xlink:show="other" /><linearGradient xmlns:xlink="http://www.w3.org/1999/xlink" xlink:href="#linearGradientF8FBFEEDF5FCDEEDFAD4E7F8E2E5E9" id="linearGradientF8FBFEEDF5FCDEEDFAD4E7F8E2E5E9_651495627" x1="0" y1="297.0" x2="0" y2="403.0" gradientUnits="userSpaceOnUse" xlink:type="simple" xlink:actuate="onLoad" xlink:show="other" /><linearGradient xmlns:xlink="http://www.w3.org/1999/xlink" xlink:href="#linearGradientFF6666FF9696FFB6B6" id="linearGradientFF6666FF9696FFB6B6_1815370583" x1="0" y1="391.0" x2="0" y2="426.0" gradientUnits="userSpaceOnUse" xlink:type="simple" xlink:actuate="onLoad" xlink:show="other" /><linearGradient id="linearGradientFF6666FF9696FFB6B6"><stop style="stop-color:#FF6666;stop-opacity:1;" offset="0.0" id="stopFF6666" /><stop style="stop-color:#FF9696;stop-opacity:1;" offset="0.5" id="stopFF9696" /><stop style="stop-color:#FFB6B6;stop-opacity:1;" offset="1.0" id="stopFFB6B6" /></linearGradient><linearGradient xmlns:xlink="http://www.w3.org/1999/xlink" xlink:href="#linearGradientF8FBFEEDF5FCDEEDFAD4E7F8E2E5E9" id="linearGradientF8FBFEEDF5FCDEEDFAD4E7F8E2E5E9_1633215552" x1="0" y1="60.0" x2="0" y2="166.0" gradientUnits="userSpaceOnUse" xlink:type="simple" xlink:actuate="onLoad" xlink:show="other" /><linearGradient xmlns:xlink="http://www.w3.org/1999/xlink" xlink:href="#linearGradientF8FBFEEDF5FCDEEDFAD4E7F8E2E5E9" id="linearGradientF8FBFEEDF5FCDEEDFAD4E7F8E2E5E9_317806510" x1="0" y1="236.0" x2="0" y2="342.0" gradientUnits="userSpaceOnUse" xlink:type="simple" xlink:actuate="onLoad" xlink:show="other" /><linearGradient xmlns:xlink="http://www.w3.org/1999/xlink" xlink:href="#linearGradientFAFBFCFFFFCC" id="linearGradientFAFBFCFFFFCC_582183481" x1="0" y1="251.0" x2="0" y2="311.0" gradientUnits="userSpaceOnUse" xlink:type="simple" xlink:actuate="onLoad" xlink:show="other" /><linearGradient id="linearGradientFAFBFCFFFFCC"><stop style="stop-color:#FAFBFC;stop-opacity:1;" offset="0.0" id="stopFAFBFC" /><stop style="stop-color:#FFFFCC;stop-opacity:1;" offset="1.0" id="stopFFFFCC" /></linearGradient><linearGradient xmlns:xlink="http://www.w3.org/1999/xlink" xlink:href="#linearGradientFAFBFCFFFFCC" id="linearGradientFAFBFCFFFFCC_822269435" x1="0" y1="31.0" x2="0" y2="91.0" gradientUnits="userSpaceOnUse" xlink:type="simple" xlink:actuate="onLoad" xlink:show="other" /></defs></svg>
