<?xml version="1.0" encoding="UTF-8"?>
<svg xmlns="http://www.w3.org/2000/svg" style="stroke-dasharray:none; shape-rendering:auto; font-family:'Arial'; text-rendering:auto; fill-opacity:1; color-interpolation:auto; color-rendering:auto; font-size:12; fill:black; stroke:black; image-rendering:auto; stroke-miterlimit:10; stroke-linecap:square; stroke-linejoin:miter; font-style:normal; stroke-width:1; stroke-dashoffset:0; font-weight:normal; stroke-opacity:1;" contentScriptType="text/ecmascript" preserveAspectRatio="xMidYMid meet" zoomAndPan="magnify" version="1.0" contentStyleType="text/css" xml:xlink="http://www.w3.org/1999/xlink" width="956" height="460"><rect x="0" y="0" width="956" height="121" ry="0" rx="0" style="stroke:#000000; fill:#CDCAFF" /><g componentSequence="1"><text x="-60" y="6" transform="rotate(270)" text-anchor="middle" style="font-weight:bold;font-size:10px;stroke:none; fill:#434343"><tspan dy="14" x="-60">Qualidade</tspan></text></g><rect x="0" y="120" width="956" height="120" ry="0" rx="0" style="stroke:#000000; fill:#FFCB97" /><g componentSequence="2"><text x="-180" y="6" transform="rotate(270)" text-anchor="middle" style="font-weight:bold;font-size:10px;stroke:none; fill:#434343"><tspan dy="14" x="-180">Auditor Lider</tspan></text></g><rect x="0" y="238" width="956" height="102" ry="0" rx="0" style="stroke:#000000; fill:#FFFFA4" /><g componentSequence="3"><text x="-289" y="6" transform="rotate(270)" text-anchor="middle" style="font-weight:bold;font-size:10px;stroke:none; fill:#434343"><tspan dy="14" x="-289">Auditor</tspan></text></g><rect x="0" y="339" width="956" height="121" ry="0" rx="0" style="stroke:#000000; fill:#CEFF9D" /><g componentSequence="4"><text x="-399" y="6" transform="rotate(270)" text-anchor="middle" style="font-weight:bold;font-size:10px;stroke:none; fill:#434343"><tspan dy="14" x="-399">Area</tspan></text></g><g sequence="1"><ellipse cx="122" cy="61" rx="17" ry="17" stroke-width="1" style="fill:url(#linearGradient66FF6696FF96B6FFB6_1450589076);" stroke="336633" /></g><g sequence="2"><rect x="69" y="154" width="106" height="67" ry="5" rx="5" style="fill:url(#linearGradientF8FBFEEDF5FCDEEDFAD4E7F8E2E5E9_1816239588);" stroke="191970" /></g><g componentSequence="2"><text x="122" y="169" text-anchor="middle" style="font-weight:bold;font-size:10px;stroke:none; fill:#333399"><tspan dy="14" x="122">Homologar</tspan><tspan dy="14" x="122">Planejamento</tspan></text></g><g sequence="3"><rect x="317" y="371" width="106" height="67" ry="5" rx="5" style="fill:url(#linearGradientF8FBFEEDF5FCDEEDFAD4E7F8E2E5E9_1206197058);" stroke="191970" /></g><g componentSequence="3"><text x="370" y="386" text-anchor="middle" style="font-weight:bold;font-size:10px;stroke:none; fill:#333399"><tspan dy="14" x="370">Analisar</tspan><tspan dy="14" x="370">Planejamento</tspan></text></g><g sequence="4"><rect x="321" y="27" width="106" height="67" ry="5" rx="5" style="fill:url(#linearGradientF8FBFEEDF5FCDEEDFAD4E7F8E2E5E9_308326126);" stroke="191970" /></g><g componentSequence="4"><text x="374" y="42" text-anchor="middle" style="font-weight:bold;font-size:10px;stroke:none; fill:#333399"><tspan dy="14" x="374">Replanejar</tspan><tspan dy="14" x="374">Auditoria</tspan></text></g><g sequence="5"><rect x="510" y="261" width="106" height="67" ry="5" rx="5" style="fill:url(#linearGradientF8FBFEEDF5FCDEEDFAD4E7F8E2E5E9_159159471);" stroke="191970" /></g><g componentSequence="5"><text x="563" y="276" text-anchor="middle" style="font-weight:bold;font-size:10px;stroke:none; fill:#333399"><tspan dy="14" x="563">Executar</tspan><tspan dy="14" x="563">Auditoria</tspan></text></g><g sequence="6"><rect x="509" y="27" width="106" height="67" ry="5" rx="5" style="fill:url(#linearGradientF8FBFEEDF5FCDEEDFAD4E7F8E2E5E9_1376088582);" stroke="191970" /></g><g componentSequence="6"><text x="562" y="49" text-anchor="middle" style="font-weight:bold;font-size:10px;stroke:none; fill:#333399"><tspan dy="14" x="562">Avaliar Auditoria</tspan></text></g><g sequence="7"><ellipse cx="692" cy="61" rx="17" ry="17" stroke-width="3" style="fill:url(#linearGradientFF6666FF9696FFB6B6_1669403131);" stroke="993333" /></g><rect x="158" y="6" width="105" height="55" ry="5" rx="5" style="stroke:none; fill:#FFFFE0" /><g componentSequence="1"><text x="168" y="29" text-anchor="left" style="font-weight:bold;font-size:10px;stroke:none; fill:#000000"><tspan dy="14" x="168">Solicitar</tspan><tspan dy="14" x="168">Auditoria</tspan></text></g><path style="fill:none; stroke-width:1; stroke:#000000;" d="M178.0 6.0 L158.0 6.0 L158.0 61.0 L178.0 61.0" /><rect x="755" y="13" width="105" height="55" ry="5" rx="5" style="stroke:none; fill:#FFFFE0" /><g componentSequence="2"><text x="765" y="26" text-anchor="left" style="font-weight:bold;font-size:10px;stroke:none; fill:#000000"><tspan dy="14" x="765">Fim</tspan></text></g><path style="fill:none; stroke-width:1; stroke:#000000;" d="M775.0 13.0 L755.0 13.0 L755.0 68.0 L775.0 68.0" /><g componentSequence="1"><text x="132" y="115" style="font-size:10px;font-weight:none;stroke:none; fill:#333399" text-anchor="left" /></g><g componentSequence="2"><text x="137" y="404" style="font-size:10px;font-weight:none;stroke:none; fill:#333399" text-anchor="left" /></g><g componentSequence="3"><text x="541" y="404" style="font-size:10px;font-weight:none;stroke:none; fill:#333399" text-anchor="left" /></g><g componentSequence="4"><text x="572" y="176" style="font-size:10px;font-weight:none;stroke:none; fill:#333399" text-anchor="left" /></g><g componentSequence="5"><text x="655" y="60" style="font-size:10px;font-weight:none;stroke:none; fill:#333399" text-anchor="left" /></g><g componentSequence="7"><text x="382" y="231" style="font-size:10px;font-weight:none;stroke:none; fill:#333399" text-anchor="left" /></g><g componentSequence="8"><text x="304" y="170" style="font-size:10px;font-weight:none;stroke:none; fill:#333399" text-anchor="left" /></g><g componentSequence="10"><text x="159" y="52" style="font-size:10px;font-weight:none;stroke:none; fill:#333399" text-anchor="left" /></g><g componentSequence="11"><text x="742" y="53" style="font-size:10px;font-weight:none;stroke:none; fill:#333399" text-anchor="left" /></g><path style="fill:none; stroke:#000000;stroke-width:1" d="M122.0 79.0 L122.0 153.0" /><polygon style="fill:#000000; stroke:#000000;" points=" 127 143 122 153 117 143 122 145" /><path style="fill:none; stroke:#000000;stroke-dasharray:2" d="M157.0 50.0 L139.0 56.0" /><path style="fill:none; stroke:#000000;stroke-width:1" d="M121.0 221.0 L121.0 405.0 L316.0 404.0" /><polygon style="fill:#000000; stroke:#000000;" points=" 306 399 316 404 306 409 308 404" /><path style="fill:none; stroke:#F00000;stroke-width:1" d="M320.0 61.0 L294.0 61.0 L294.0 188.0 L175.0 187.0" /><polygon style="fill:#F00000; stroke:#F00000;" points=" 185 192 175 187 185 182 183 187" /><polygon style="fill:#F00000; stroke:#F00000;" points=" 310 56 320 61 310 66 312 61" /><path style="fill:none; stroke:#000000;stroke-width:1" d="M423.0 404.0 L563.0 405.0 L563.0 328.0" /><polygon style="fill:#000000; stroke:#000000;" points=" 558 338 563 328 568 338 563 336" /><path style="fill:none; stroke:#000000;stroke-width:1" d="M370.0 370.0 L373.0 94.0" /><polygon style="fill:#000000; stroke:#000000;" points=" 368 104 373 94 378 104 373 102" /><path style="fill:none; stroke:#000000;stroke-width:1" d="M562.0 260.0 L562.0 94.0" /><polygon style="fill:#000000; stroke:#000000;" points=" 557 104 562 94 567 104 562 102" /><path style="fill:none; stroke:#000000;stroke-width:1" d="M615.0 60.0 L675.0 61.0" /><polygon style="fill:#000000; stroke:#000000;" points=" 665 56 675 61 665 66 667 61" /><path style="fill:none; stroke:#000000;stroke-dasharray:2" d="M754.0 50.0 L709.0 58.0" /><defs><linearGradient xmlns:xlink="http://www.w3.org/1999/xlink" xlink:href="#linearGradient66FF6696FF96B6FFB6" id="linearGradient66FF6696FF96B6FFB6_1450589076" x1="0" y1="44.0" x2="0" y2="79.0" gradientUnits="userSpaceOnUse" xlink:type="simple" xlink:actuate="onLoad" xlink:show="other" /><linearGradient id="linearGradient66FF6696FF96B6FFB6"><stop style="stop-color:#66FF66;stop-opacity:1;" offset="0.0" id="stop66FF66" /><stop style="stop-color:#96FF96;stop-opacity:1;" offset="0.5" id="stop96FF96" /><stop style="stop-color:#B6FFB6;stop-opacity:1;" offset="1.0" id="stopB6FFB6" /></linearGradient><linearGradient xmlns:xlink="http://www.w3.org/1999/xlink" xlink:href="#linearGradientF8FBFEEDF5FCDEEDFAD4E7F8E2E5E9" id="linearGradientF8FBFEEDF5FCDEEDFAD4E7F8E2E5E9_1816239588" x1="0" y1="154.0" x2="0" y2="260.0" gradientUnits="userSpaceOnUse" xlink:type="simple" xlink:actuate="onLoad" xlink:show="other" /><linearGradient id="linearGradientF8FBFEEDF5FCDEEDFAD4E7F8E2E5E9"><stop style="stop-color:#F8FBFE;stop-opacity:1;" offset="0.0" id="stopF8FBFE" /><stop style="stop-color:#EDF5FC;stop-opacity:1;" offset="0.25" id="stopEDF5FC" /><stop style="stop-color:#DEEDFA;stop-opacity:1;" offset="0.5" id="stopDEEDFA" /><stop style="stop-color:#D4E7F8;stop-opacity:1;" offset="0.75" id="stopD4E7F8" /><stop style="stop-color:#E2E5E9;stop-opacity:1;" offset="1.0" id="stopE2E5E9" /></linearGradient><linearGradient xmlns:xlink="http://www.w3.org/1999/xlink" xlink:href="#linearGradientF8FBFEEDF5FCDEEDFAD4E7F8E2E5E9" id="linearGradientF8FBFEEDF5FCDEEDFAD4E7F8E2E5E9_1206197058" x1="0" y1="371.0" x2="0" y2="477.0" gradientUnits="userSpaceOnUse" xlink:type="simple" xlink:actuate="onLoad" xlink:show="other" /><linearGradient xmlns:xlink="http://www.w3.org/1999/xlink" xlink:href="#linearGradientF8FBFEEDF5FCDEEDFAD4E7F8E2E5E9" id="linearGradientF8FBFEEDF5FCDEEDFAD4E7F8E2E5E9_308326126" x1="0" y1="27.0" x2="0" y2="133.0" gradientUnits="userSpaceOnUse" xlink:type="simple" xlink:actuate="onLoad" xlink:show="other" /><linearGradient xmlns:xlink="http://www.w3.org/1999/xlink" xlink:href="#linearGradientF8FBFEEDF5FCDEEDFAD4E7F8E2E5E9" id="linearGradientF8FBFEEDF5FCDEEDFAD4E7F8E2E5E9_159159471" x1="0" y1="261.0" x2="0" y2="367.0" gradientUnits="userSpaceOnUse" xlink:type="simple" xlink:actuate="onLoad" xlink:show="other" /><linearGradient xmlns:xlink="http://www.w3.org/1999/xlink" xlink:href="#linearGradientF8FBFEEDF5FCDEEDFAD4E7F8E2E5E9" id="linearGradientF8FBFEEDF5FCDEEDFAD4E7F8E2E5E9_1376088582" x1="0" y1="27.0" x2="0" y2="133.0" gradientUnits="userSpaceOnUse" xlink:type="simple" xlink:actuate="onLoad" xlink:show="other" /><linearGradient xmlns:xlink="http://www.w3.org/1999/xlink" xlink:href="#linearGradientFF6666FF9696FFB6B6" id="linearGradientFF6666FF9696FFB6B6_1669403131" x1="0" y1="44.0" x2="0" y2="79.0" gradientUnits="userSpaceOnUse" xlink:type="simple" xlink:actuate="onLoad" xlink:show="other" /><linearGradient id="linearGradientFF6666FF9696FFB6B6"><stop style="stop-color:#FF6666;stop-opacity:1;" offset="0.0" id="stopFF6666" /><stop style="stop-color:#FF9696;stop-opacity:1;" offset="0.5" id="stopFF9696" /><stop style="stop-color:#FFB6B6;stop-opacity:1;" offset="1.0" id="stopFFB6B6" /></linearGradient></defs></svg>
