<?xml version="1.0" encoding="UTF-8"?>
<svg xmlns="http://www.w3.org/2000/svg" style="stroke-dasharray:none; shape-rendering:auto; font-family:'Arial'; text-rendering:auto; fill-opacity:1; color-interpolation:auto; color-rendering:auto; font-size:12; fill:black; stroke:black; image-rendering:auto; stroke-miterlimit:10; stroke-linecap:square; stroke-linejoin:miter; font-style:normal; stroke-width:1; stroke-dashoffset:0; font-weight:normal; stroke-opacity:1;" contentScriptType="text/ecmascript" preserveAspectRatio="xMidYMid meet" zoomAndPan="magnify" version="1.0" contentStyleType="text/css" xml:xlink="http://www.w3.org/1999/xlink" width="1027" height="579"><rect x="0" y="2" width="1027" height="130" ry="0" rx="0" style="stroke:#000000; fill:#FE7272" /><g componentSequence="1"><text x="-67" y="6" transform="rotate(270)" text-anchor="middle" style="font-weight:bold;font-size:10px;stroke:none; fill:#434343"><tspan dy="14" x="-67">Solicitante</tspan></text></g><rect x="0" y="131" width="1027" height="138" ry="0" rx="0" style="stroke:#000000; fill:#FFBC79" /><g componentSequence="2"><text x="-200" y="6" transform="rotate(270)" text-anchor="middle" style="font-weight:bold;font-size:10px;stroke:none; fill:#434343"><tspan dy="14" x="-200">Elaborador</tspan></text></g><rect x="0" y="268" width="1027" height="128" ry="0" rx="0" style="stroke:#000000; fill:#FFFF80" /><g componentSequence="3"><text x="-332" y="6" transform="rotate(270)" text-anchor="middle" style="font-weight:bold;font-size:10px;stroke:none; fill:#434343"><tspan dy="14" x="-332">Aprovador</tspan></text></g><rect x="0" y="395" width="1027" height="184" ry="0" rx="0" style="stroke:#000000; fill:#B7FF6F" /><g componentSequence="4"><text x="-487" y="6" transform="rotate(270)" text-anchor="middle" style="font-weight:bold;font-size:10px;stroke:none; fill:#434343"><tspan dy="14" x="-487">BPM</tspan></text></g><g sequence="1"><ellipse cx="126" cy="68" rx="17" ry="17" stroke-width="1" style="fill:url(#linearGradient66FF6696FF96B6FFB6_1282157695);" stroke="336633" /></g><g sequence="2"><rect x="74" y="174" width="106" height="54" ry="5" rx="5" style="fill:url(#linearGradientF8FBFEEDF5FCDEEDFAD4E7F8E2E5E9_1373465867);" stroke="191970" /></g><g componentSequence="2"><text x="127" y="190" text-anchor="middle" style="font-weight:bold;font-size:10px;stroke:none; fill:#333399"><tspan dy="14" x="127">Fazer triagem</tspan></text></g><g sequence="4"><rect x="214" y="174" width="106" height="54" ry="5" rx="5" style="fill:url(#linearGradientF8FBFEEDF5FCDEEDFAD4E7F8E2E5E9_539105066);" stroke="191970" /></g><g componentSequence="4"><text x="267" y="190" text-anchor="middle" style="font-weight:bold;font-size:10px;stroke:none; fill:#333399"><tspan dy="14" x="267">Elaborar</tspan></text></g><g sequence="5"><rect x="66" y="306" width="106" height="67" ry="5" rx="5" style="fill:url(#linearGradientF8FBFEEDF5FCDEEDFAD4E7F8E2E5E9_505337569);" stroke="191970" /></g><g componentSequence="5"><text x="119" y="321" text-anchor="middle" style="font-weight:bold;font-size:10px;stroke:none; fill:#333399"><tspan dy="14" x="119">Aprovar</tspan><tspan dy="14" x="119">alterações</tspan></text></g><g sequence="6"><rect x="605" y="160" width="106" height="80" ry="5" rx="5" style="fill:url(#linearGradientF8FBFEEDF5FCDEEDFAD4E7F8E2E5E9_2058181945);" stroke="191970" /></g><g componentSequence="6"><text x="658" y="175" text-anchor="middle" style="font-weight:bold;font-size:10px;stroke:none; fill:#333399"><tspan dy="14" x="658">Distribuir cópias</tspan><tspan dy="14" x="658">controladas</tspan></text></g><g sequence="7"><rect x="353" y="167" width="106" height="67" ry="5" rx="5" style="fill:url(#linearGradientF8FBFEEDF5FCDEEDFAD4E7F8E2E5E9_197363739);" stroke="191970" /></g><g componentSequence="7"><text x="406" y="182" text-anchor="middle" style="font-weight:bold;font-size:10px;stroke:none; fill:#333399"><tspan dy="14" x="406">Efetuar</tspan><tspan dy="14" x="406">capacitação</tspan></text></g><g sequence="8"><polygon points=" 376 468 406 438 436 468 406 498 376 468" style="fill:url(#linearGradientFAFBFCFFFFCC_1377610405);" stroke="000000" /></g><g componentSequence="8"><text x="406" y="508" text-anchor="middle" style="font-weight:bold;font-size:10px;stroke:none; fill:#333399"><tspan dy="14" x="406">Capacita</tspan><tspan dy="14" x="406">r?</tspan></text></g><g sequence="9"><polygon points=" 511 461 541 431 571 461 541 491 511 461" style="fill:url(#linearGradientFAFBFCFFFFCC_1476878528);" stroke="000000" /></g><g componentSequence="9"><text x="541" y="501" text-anchor="middle" style="font-weight:bold;font-size:10px;stroke:none; fill:#333399"><tspan dy="14" x="541">Distribuir</tspan><tspan dy="14" x="541">Cópia</tspan><tspan dy="14" x="541">Contr...</tspan></text></g><g sequence="10"><ellipse cx="811" cy="201" rx="17" ry="17" stroke-width="3" style="fill:url(#linearGradientFF6666FF9696FFB6B6_1281428070);" stroke="993333" /></g><rect x="170" y="10" width="105" height="55" ry="5" rx="5" style="stroke:none; fill:#FFFFE0" /><g componentSequence="1"><text x="180" y="33" text-anchor="left" style="font-weight:bold;font-size:10px;stroke:none; fill:#000000"><tspan dy="14" x="180">Solicitar</tspan><tspan dy="14" x="180">registro</tspan></text></g><path style="fill:none; stroke-width:1; stroke:#000000;" d="M190.0 10.0 L170.0 10.0 L170.0 65.0 L190.0 65.0" /><rect x="871" y="147" width="105" height="55" ry="5" rx="5" style="stroke:none; fill:#FFFFE0" /><g componentSequence="2"><text x="881" y="160" text-anchor="left" style="font-weight:bold;font-size:10px;stroke:none; fill:#000000"><tspan dy="14" x="881">Fim</tspan></text></g><path style="fill:none; stroke-width:1; stroke:#000000;" d="M891.0 147.0 L871.0 147.0 L871.0 202.0 L891.0 202.0" /><g componentSequence="1"><text x="136" y="130" style="font-size:10px;font-weight:none;stroke:none; fill:#333399" text-anchor="left" /></g><g componentSequence="2"><text x="207" y="201" style="font-size:10px;font-weight:none;stroke:none; fill:#333399" text-anchor="left" /></g><g componentSequence="3"><text x="276" y="332" style="font-size:10px;font-weight:none;stroke:none; fill:#333399" text-anchor="left" /></g><g componentSequence="5"><text x="416" y="336" style="font-size:10px;font-weight:none;stroke:none; fill:#333399" text-anchor="left" /></g><g componentSequence="6"><text x="551" y="274" style="font-size:10px;font-weight:none;stroke:none; fill:#333399" text-anchor="left" /></g><g componentSequence="7"><text x="668" y="408" style="font-size:10px;font-weight:none;stroke:none; fill:#333399" text-anchor="left" /></g><g componentSequence="8"><text x="762" y="201" style="font-size:10px;font-weight:none;stroke:none; fill:#333399" text-anchor="left" /></g><g componentSequence="9"><text x="483" y="487" style="font-size:10px;font-weight:none;stroke:none; fill:#333399" text-anchor="left" /></g><g componentSequence="10"><text x="821" y="547" style="font-size:10px;font-weight:none;stroke:none; fill:#333399" text-anchor="left" /></g><g componentSequence="11"><text x="200" y="488" style="font-size:10px;font-weight:none;stroke:none; fill:#333399" text-anchor="left" /></g><g componentSequence="110"><text x="167" y="58" style="font-size:10px;font-weight:none;stroke:none; fill:#333399" text-anchor="left" /></g><g componentSequence="210"><text x="860" y="192" style="font-size:10px;font-weight:none;stroke:none; fill:#333399" text-anchor="left" /></g><path style="fill:none; stroke:#F00000;stroke-width:1" d="M126.0 85.0 L126.0 173.0" /><polygon style="fill:#F00000; stroke:#F00000;" points=" 131 163 126 173 121 163 126 165" /><polygon style="fill:#F00000; stroke:#F00000;" points=" 121 95 126 85 131 95 126 93" /><path style="fill:none; stroke:#000000;stroke-dasharray:2" d="M169.0 54.0 L143.0 63.0" /><path style="fill:none; stroke:#000000;stroke-width:1" d="M180.0 201.0 L213.0 201.0" /><polygon style="fill:#000000; stroke:#000000;" points=" 203 196 213 201 203 206 205 201" /><path style="fill:none; stroke:#F00000;stroke-width:1" d="M266.0 228.0 L266.0 341.0 L172.0 340.0" /><polygon style="fill:#F00000; stroke:#F00000;" points=" 182 345 172 340 182 335 180 340" /><polygon style="fill:#F00000; stroke:#F00000;" points=" 261 238 266 228 271 238 266 236" /><path style="fill:none; stroke:#000000;stroke-width:1" d="M119.0 373.0 L119.0 488.0 L375.0 487.0" /><polygon style="fill:#000000; stroke:#000000;" points=" 365 482 375 487 365 492 367 487" /><path style="fill:none; stroke:#000000;stroke-width:1" d="M711.0 200.0 L794.0 201.0" /><polygon style="fill:#000000; stroke:#000000;" points=" 784 196 794 201 784 206 786 201" /><path style="fill:none; stroke:#000000;stroke-width:1" d="M571.0 487.0 L658.0 489.0 L658.0 240.0" /><polygon style="fill:#000000; stroke:#000000;" points=" 653 250 658 240 663 250 658 248" /><path style="fill:none; stroke:#000000;stroke-width:1" d="M459.0 200.0 L541.0 201.0 L541.0 430.0" /><polygon style="fill:#000000; stroke:#000000;" points=" 546 420 541 430 536 420 541 422" /><path style="fill:none; stroke:#000000;stroke-width:1" d="M406.0 437.0 L406.0 234.0" /><polygon style="fill:#000000; stroke:#000000;" points=" 401 244 406 234 411 244 406 242" /><path style="fill:none; stroke:#000000;stroke-width:1" d="M436.0 487.0 L510.0 487.0" /><polygon style="fill:#000000; stroke:#000000;" points=" 500 482 510 487 500 492 502 487" /><path style="fill:none; stroke:#000000;stroke-width:1" d="M541.0 543.0 L542.0 574.0 L811.0 574.0 L811.0 219.0" /><polygon style="fill:#000000; stroke:#000000;" points=" 806 229 811 219 816 229 811 227" /><path style="fill:none; stroke:#000000;stroke-dasharray:2" d="M870.0 187.0 L828.0 197.0" /><defs><linearGradient xmlns:xlink="http://www.w3.org/1999/xlink" xlink:href="#linearGradient66FF6696FF96B6FFB6" id="linearGradient66FF6696FF96B6FFB6_1282157695" x1="0" y1="51.0" x2="0" y2="86.0" gradientUnits="userSpaceOnUse" xlink:type="simple" xlink:actuate="onLoad" xlink:show="other" /><linearGradient id="linearGradient66FF6696FF96B6FFB6"><stop style="stop-color:#66FF66;stop-opacity:1;" offset="0.0" id="stop66FF66" /><stop style="stop-color:#96FF96;stop-opacity:1;" offset="0.5" id="stop96FF96" /><stop style="stop-color:#B6FFB6;stop-opacity:1;" offset="1.0" id="stopB6FFB6" /></linearGradient><linearGradient xmlns:xlink="http://www.w3.org/1999/xlink" xlink:href="#linearGradientF8FBFEEDF5FCDEEDFAD4E7F8E2E5E9" id="linearGradientF8FBFEEDF5FCDEEDFAD4E7F8E2E5E9_1373465867" x1="0" y1="174.0" x2="0" y2="280.0" gradientUnits="userSpaceOnUse" xlink:type="simple" xlink:actuate="onLoad" xlink:show="other" /><linearGradient id="linearGradientF8FBFEEDF5FCDEEDFAD4E7F8E2E5E9"><stop style="stop-color:#F8FBFE;stop-opacity:1;" offset="0.0" id="stopF8FBFE" /><stop style="stop-color:#EDF5FC;stop-opacity:1;" offset="0.25" id="stopEDF5FC" /><stop style="stop-color:#DEEDFA;stop-opacity:1;" offset="0.5" id="stopDEEDFA" /><stop style="stop-color:#D4E7F8;stop-opacity:1;" offset="0.75" id="stopD4E7F8" /><stop style="stop-color:#E2E5E9;stop-opacity:1;" offset="1.0" id="stopE2E5E9" /></linearGradient><linearGradient xmlns:xlink="http://www.w3.org/1999/xlink" xlink:href="#linearGradientF8FBFEEDF5FCDEEDFAD4E7F8E2E5E9" id="linearGradientF8FBFEEDF5FCDEEDFAD4E7F8E2E5E9_539105066" x1="0" y1="174.0" x2="0" y2="280.0" gradientUnits="userSpaceOnUse" xlink:type="simple" xlink:actuate="onLoad" xlink:show="other" /><linearGradient xmlns:xlink="http://www.w3.org/1999/xlink" xlink:href="#linearGradientF8FBFEEDF5FCDEEDFAD4E7F8E2E5E9" id="linearGradientF8FBFEEDF5FCDEEDFAD4E7F8E2E5E9_505337569" x1="0" y1="306.0" x2="0" y2="412.0" gradientUnits="userSpaceOnUse" xlink:type="simple" xlink:actuate="onLoad" xlink:show="other" /><linearGradient xmlns:xlink="http://www.w3.org/1999/xlink" xlink:href="#linearGradientF8FBFEEDF5FCDEEDFAD4E7F8E2E5E9" id="linearGradientF8FBFEEDF5FCDEEDFAD4E7F8E2E5E9_2058181945" x1="0" y1="160.0" x2="0" y2="266.0" gradientUnits="userSpaceOnUse" xlink:type="simple" xlink:actuate="onLoad" xlink:show="other" /><linearGradient xmlns:xlink="http://www.w3.org/1999/xlink" xlink:href="#linearGradientF8FBFEEDF5FCDEEDFAD4E7F8E2E5E9" id="linearGradientF8FBFEEDF5FCDEEDFAD4E7F8E2E5E9_197363739" x1="0" y1="167.0" x2="0" y2="273.0" gradientUnits="userSpaceOnUse" xlink:type="simple" xlink:actuate="onLoad" xlink:show="other" /><linearGradient xmlns:xlink="http://www.w3.org/1999/xlink" xlink:href="#linearGradientFAFBFCFFFFCC" id="linearGradientFAFBFCFFFFCC_1377610405" x1="0" y1="438.0" x2="0" y2="498.0" gradientUnits="userSpaceOnUse" xlink:type="simple" xlink:actuate="onLoad" xlink:show="other" /><linearGradient id="linearGradientFAFBFCFFFFCC"><stop style="stop-color:#FAFBFC;stop-opacity:1;" offset="0.0" id="stopFAFBFC" /><stop style="stop-color:#FFFFCC;stop-opacity:1;" offset="1.0" id="stopFFFFCC" /></linearGradient><linearGradient xmlns:xlink="http://www.w3.org/1999/xlink" xlink:href="#linearGradientFAFBFCFFFFCC" id="linearGradientFAFBFCFFFFCC_1476878528" x1="0" y1="431.0" x2="0" y2="491.0" gradientUnits="userSpaceOnUse" xlink:type="simple" xlink:actuate="onLoad" xlink:show="other" /><linearGradient xmlns:xlink="http://www.w3.org/1999/xlink" xlink:href="#linearGradientFF6666FF9696FFB6B6" id="linearGradientFF6666FF9696FFB6B6_1281428070" x1="0" y1="184.0" x2="0" y2="219.0" gradientUnits="userSpaceOnUse" xlink:type="simple" xlink:actuate="onLoad" xlink:show="other" /><linearGradient id="linearGradientFF6666FF9696FFB6B6"><stop style="stop-color:#FF6666;stop-opacity:1;" offset="0.0" id="stopFF6666" /><stop style="stop-color:#FF9696;stop-opacity:1;" offset="0.5" id="stopFF9696" /><stop style="stop-color:#FFB6B6;stop-opacity:1;" offset="1.0" id="stopFFB6B6" /></linearGradient></defs></svg>
